<?xml version="1.0" encoding="UTF-8" standalone="no"?>
<!-- Created with Inkscape (http://www.inkscape.org/) -->

<svg
   width="21"
   height="9"
   viewBox="0 0 21 9"
   version="1.1"
   id="svg1"
   xml:space="preserve"
   inkscape:version="1.4.2 (ebf0e940d0, 2025-05-08)"
   sodipodi:docname="hello-world.svg"
   xmlns:inkscape="http://www.inkscape.org/namespaces/inkscape"
   xmlns:sodipodi="http://sodipodi.sourceforge.net/DTD/sodipodi-0.dtd"
   xmlns="http://www.w3.org/2000/svg"
   xmlns:svg="http://www.w3.org/2000/svg"><sodipodi:namedview
     id="namedview1"
     pagecolor="#ffffff"
     bordercolor="#000000"
     borderopacity="0.25"
     inkscape:showpageshadow="2"
     inkscape:pageopacity="0.0"
     inkscape:pagecheckerboard="0"
     inkscape:deskcolor="#d1d1d1"
     inkscape:document-units="px"
     inkscape:zoom="114.71336"
     inkscape:cx="11.280291"
     inkscape:cy="5.5616889"
     inkscape:window-width="3840"
     inkscape:window-height="2160"
     inkscape:window-x="0"
     inkscape:window-y="0"
     inkscape:window-maximized="0"
     inkscape:current-layer="layer1" /><defs
     id="defs1" /><g
     inkscape:label="Layer 1"
     inkscape:groupmode="layer"
     id="layer1"><rect
       style="opacity:1;fill:#181825;fill-opacity:1;stroke:none;stroke-width:0.1125;stroke-linecap:round;stroke-linejoin:round"
       id="rect10"
       width="21.000006"
       height="9"
       x="-7.1054274e-15"
       y="0" /><circle
       style="opacity:1;fill:#a6e3a1;fill-opacity:1;stroke:none;stroke-width:0.108383;stroke-linecap:round;stroke-linejoin:round;stroke-dasharray:none"
       id="path1"
       cx="4.5003004"
       cy="4.5402422"
       r="4.0065427" /><path
       id="path2"
       style="opacity:1;fill:#89b4fa;fill-opacity:1;stroke:#1e1e2e;stroke-width:0.0850394;stroke-linecap:round;stroke-linejoin:round;stroke-dasharray:none;stroke-dashoffset:0;stroke-opacity:1;paint-order:normal"
       d="m 3.7870754,0.59770023 a 4.0065428,4.0065428 0 0 0 -0.9769703,0.3099682 c 0.021608,-0.009974 0.7093652,-0.0777392 0.7093652,-0.0777392 l 0.071016,0.128716 L 3.1377836,1.2382472 3.2176756,1.3447705 3.368562,1.3403305 3.452893,1.7486265 3.6747952,1.9128528 3.6304103,2.6052112 3.2975464,2.7871668 3.1599758,2.436549 3.3951932,2.3256089 3.2664995,2.1880163 2.5164409,2.3211706 2.4054789,2.725028 2.4454251,2.8892515 2.3478006,3.1910461 2.5253175,2.9780213 3.0179445,2.5341956 3.1422218,2.7694131 3.0578907,2.9691445 3.2931301,2.9291983 3.3552466,3.6526041 2.4898096,3.6881128 2.8271117,3.7635669 2.97802,4.0342923 2.5164404,4.1585707 2.0637377,4.2029537 1.788574,4.4115383 1.4557102,4.4692404 1.3492088,4.9307979 1.2515624,4.8953082 1.3048243,4.4692585 0.96308346,4.0254331 0.76781261,4.5225204 0.81661388,4.8243158 0.95420686,4.7754918 1.038538,4.8953067 0.89650668,5.1261073 1.0784842,5.4190246 1.011907,5.7075046 1.1716703,5.9249674 2.3034159,6.8924892 2.8981279,7.4516935 4.0165363,8.0064591 4.0697974,8.1307376 3.7591262,8.2550161 3.3260451,8.3708548 A 4.0065428,4.0065428 0 0 0 4.500308,8.5467919 4.0065428,4.0065428 0 0 0 6.8462624,7.7881419 L 7.3007889,7.2652808 7.2475278,7.1010565 7.2963517,6.8436479 7.0877444,6.9723635 6.1823614,7.3850979 5.7607501,7.2208962 5.4855853,6.9013485 5.5077712,6.4087217 6.0004198,5.6764165 6.0359096,5.4367604 6.2045484,5.1394022 5.9782075,5.0683849 5.8716853,4.5446885 6.3199495,4.4381663 5.9737711,4.0964251 6.151288,4.0120925 6.0891715,3.9233227 6.2134273,3.9277447 6.2844446,3.6570197 6.4175974,3.4306793 6.2533731,3.1732696 6.0092798,2.9824151 5.9293881,2.4942266 5.9426921,2.041524 6.3066266,1.9705305 6.2533655,1.6465436 5.9560111,1.3314337 5.4411917,1.0873397 5.2547741,0.83878505 4.5491225,0.70121437 4.0387195,0.72784492 3.6570325,0.78996147 3.7870887,0.59767872 Z M 6.204551,5.1394043 6.5196617,5.0284411 7.0034337,4.6689475 7.1321267,4.9174817 7.5937065,4.8376128 7.5848246,4.6334426 7.7978502,4.5624253 8.0375063,4.2073915 7.9088134,3.8257045 7.7667825,4.087554 7.5182482,3.8834065 7.4339156,4.0254148 7.5182482,4.2872643 7.269714,4.0609234 6.9501662,3.9055999 6.8791489,4.0076623 7.2830278,4.1763238 7.2697238,4.4204171 7.3185478,4.5713034 7.1321301,4.5535396 7.2208999,4.3227616 6.8081436,4.0964208 6.5374198,4.4292838 6.4442128,4.8997187 Z M 2.8101051,0.90766846 a 4.0065428,4.0065428 0 0 0 -4.25e-5,0 A 4.0065428,4.0065428 0 0 0 0.49374902,4.5402323 4.0065428,4.0065428 0 0 0 1.7310952,7.435723 L 1.1494776,6.4042825 1.2338086,6.1734818 1.0163451,5.8761274 0.67460433,4.8109807 0.67016717,4.0209757 1.0607311,2.7383439 1.8063293,1.9261686 2.7516589,1.17611 Z M 3.5194703,1.3358936 4.2916996,1.5533571 4.7310864,1.6510035 4.8819727,1.7530666 4.8553648,1.9394828 4.8997289,2.2501544 4.8819651,2.5075641 4.380461,2.80492 4.0653504,3.2309918 3.8168162,2.9114436 3.9499501,2.4764948 4.0653504,1.9527985 3.8345724,1.806329 3.7546796,1.8595908 3.5682857,1.6510043 Z M 6.2001124,2.3300465 6.3332651,2.7738502 6.510782,3.3641237 6.7637534,3.097837 6.603989,2.8049194 6.6838807,2.5341944 6.555165,2.7205886 Z m 1.4202247,0.3372802 0.097625,0.2973778 0.195292,0.097625 0.1109405,0.1775392 0.017764,-0.1642235 z m -0.1065223,0.4083178 -0.013304,0.1642236 0.057698,0.057678 v 0.093208 L 7.3984258,3.3552457 7.5404567,3.7680021 7.6114741,3.7413716 7.6869059,3.5194698 7.8378149,3.3730002 7.7667976,3.2443065 7.5848435,3.2221131 Z M 8.3592568,3.4979151 8.2461204,3.6881104 8.4417866,3.8211551 A 4.0065428,4.0065428 0 0 0 8.4417439,3.8209552 4.0065428,4.0065428 0 0 0 8.3592568,3.4979151 Z M 8.090772,4.4026616 8.4837968,4.8810501 a 4.0065428,4.0065428 0 0 0 4.377e-4,-0.00631 L 8.3703724,4.6290198 Z"
       inkscape:label="water" /><circle
       style="opacity:1;fill:none;fill-opacity:1;stroke:#1e1e2e;stroke-width:0.0850394;stroke-linecap:round;stroke-linejoin:round;stroke-opacity:1"
       id="circle10"
       cx="4.5003004"
       cy="4.5402422"
       r="4.0065427" /><text
       xml:space="preserve"
       style="font-size:1.24602px;font-family:'JetBrains Mono';-inkscape-font-specification:'JetBrains Mono';text-align:start;writing-mode:lr-tb;direction:ltr;text-anchor:start;opacity:1;fill:#cdd6f4;fill-opacity:1;stroke:none;stroke-width:0.294335;stroke-linecap:round;stroke-linejoin:round;stroke-opacity:1"
       x="10.186255"
       y="5.0514321"
       id="text11"><tspan
         sodipodi:role="line"
         id="tspan11"
         style="font-size:1.24602px;fill:#cdd6f4;fill-opacity:1;stroke:none;stroke-width:0.294335"
         x="10.186255"
         y="5.0514321">Hello, world!</tspan></text><circle
       style="opacity:1;fill:#cdd6f4;fill-opacity:1;stroke:none;stroke-width:0.108383;stroke-linecap:round;stroke-linejoin:round;stroke-dasharray:none;stroke-dashoffset:0;stroke-opacity:1;paint-order:normal"
       id="path11"
       cx="18.371359"
       cy="1.0230719"
       r="0.094147719" /><circle
       style="fill:#cdd6f4;fill-opacity:1;stroke:none;stroke-width:0.108383;stroke-linecap:round;stroke-linejoin:round;stroke-dasharray:none;stroke-dashoffset:0;stroke-opacity:1;paint-order:normal"
       id="path11-2"
       cx="20.033716"
       cy="2.9022992"
       r="0.094147719" /><circle
       style="fill:#cdd6f4;fill-opacity:1;stroke:none;stroke-width:0.108383;stroke-linecap:round;stroke-linejoin:round;stroke-dasharray:none;stroke-dashoffset:0;stroke-opacity:1;paint-order:normal"
       id="path11-6"
       cx="12.997898"
       cy="0.93789774"
       r="0.094147719" /><circle
       style="fill:#cdd6f4;fill-opacity:1;stroke:none;stroke-width:0.108383;stroke-linecap:round;stroke-linejoin:round;stroke-dasharray:none;stroke-dashoffset:0;stroke-opacity:1;paint-order:normal"
       id="path11-7"
       cx="15.495398"
       cy="2.5578978"
       r="0.094147719" /><circle
       style="fill:#cdd6f4;fill-opacity:1;stroke:none;stroke-width:0.108383;stroke-linecap:round;stroke-linejoin:round;stroke-dasharray:none;stroke-dashoffset:0;stroke-opacity:1;paint-order:normal"
       id="path11-3"
       cx="10.129148"
       cy="2.4566479"
       r="0.094147719" /><circle
       style="fill:#cdd6f4;fill-opacity:1;stroke:none;stroke-width:0.108383;stroke-linecap:round;stroke-linejoin:round;stroke-dasharray:none;stroke-dashoffset:0;stroke-opacity:1;paint-order:normal"
       id="path11-28"
       cx="11.287897"
       cy="7.5416479"
       r="0.094147719" /><circle
       style="fill:#cdd6f4;fill-opacity:1;stroke:none;stroke-width:0.108383;stroke-linecap:round;stroke-linejoin:round;stroke-dasharray:none;stroke-dashoffset:0;stroke-opacity:1;paint-order:normal"
       id="path11-1"
       cx="16.575397"
       cy="6.765398"
       r="0.094147719" /><circle
       style="fill:#cdd6f4;fill-opacity:1;stroke:none;stroke-width:0.108383;stroke-linecap:round;stroke-linejoin:round;stroke-dasharray:none;stroke-dashoffset:0;stroke-opacity:1;paint-order:normal"
       id="path11-9"
       cx="19.736649"
       cy="7.8791485"
       r="0.094147719" /><circle
       style="fill:#cdd6f4;fill-opacity:1;stroke:none;stroke-width:0.108383;stroke-linecap:round;stroke-linejoin:round;stroke-dasharray:none;stroke-dashoffset:0;stroke-opacity:1;paint-order:normal"
       id="path11-5"
       cx="1.1178974"
       cy="0.6228978"
       r="0.094147719" /></g></svg>
