<svg
  width="200"
  viewBox="0 0 21 9"
  version="1.1"
  id="svg1"
  xml:space="preserve"
  inkscape:version="1.4.2 (ebf0e940d0, 2025-05-08)"
  sodipodi:docname="hello-world.svg"
  xmlns:inkscape="http://www.inkscape.org/namespaces/inkscape"
  xmlns:sodipodi="http://sodipodi.sourceforge.net/DTD/sodipodi-0.dtd"
  xmlns="http://www.w3.org/2000/svg"
  xmlns:svg="http://www.w3.org/2000/svg">
  <style>
    @font-face {
      font-family: "JetBrains Mono";
      src: url(/deps/fonts/jetbrains_mono.ttf);
    }
    :root {
      --banner-stroke: 0.55;
      --banner-stroke-color: #181825;
    }
    #banner-land {
      stroke-width: var(--banner-stroke);
    }
    #banner-water {
      stroke-width: var(--banner-stroke);
      stroke: var(--banner-stroke-color);
    }
    #banner-text {
        font-weight: bold;
    }
    @keyframes twinkle {
      0% { opacity: 1; }
      50% { opacity: 0; }
      100% { opacity: 1; }
    }
    #star1 { animation: 5s ease infinite twinkle; }
    #star2 { animation: 6s ease infinite twinkle; }
    #star3 { animation: 7s ease infinite twinkle; }
    #star4 { animation: 8s ease infinite twinkle; }
    #star5 { animation: 9s ease infinite twinkle; }
    #star6 { animation: 10s ease infinite twinkle; }
    #star7 { animation: 11s ease infinite twinkle; }
    #star8 { animation: 12s ease infinite twinkle; }
    #star9 { animation: 13s ease infinite twinkle; }
  </style>
  <rect
    style="fill:#181825"
    id="banner-bg"
    width="100%"
    height="100%"
  />
  <circle
    style="fill:#a6e3a1;stroke:#181825"
    id="banner-land"
    cx="4.5"
    cy="4.54"
    r="4"
  />
  <path
    id="banner-water"
    style="fill:#89b4fa;stroke-linejoin:round"
    d="m 3.78,0.59 a 4,4 0 0 0 -0.97,0.30 c 0.02,-0.01 0.70,-0.08 0.71,-0.08 l 0.07,0.13 L 3.14,1.24 3.22,1.34 3.36562,1.343305 3.45893,1.746265 3.677952,1.918528 3.634103,2.602112 3.295464,2.781668 3.159758,2.43549 3.391932,2.326089 3.264995,2.180163 2.514409,2.321706 2.404789,2.72028 2.444251,2.882515 2.348006,3.190461 2.523175,2.970213 3.019445,2.531956 3.142218,2.764131 3.058907,2.961445 3.291301,2.921983 3.352466,3.656041 2.488096,3.681128 2.821117,3.765669 2.9702,4.032923 2.514404,4.155707 2.067377,4.209537 1.78574,4.415383 1.457102,4.462404 1.342088,4.937979 1.255624,4.893082 1.308243,4.462585 0.9608346,4.024331 0.7681261,4.525204 0.8161388,4.823158 0.9520686,4.774918 1.03538,4.893067 0.8950668,5.121073 1.074842,5.410246 1.01907,5.705046 1.176703,5.929674 2.304159,6.894892 2.891279,7.456935 4.015363,8.004591 4.067974,8.137376 3.751262,8.250161 3.320451,8.378548 A 4.005428,4.005428 0 0 0 4.50308,8.547919 4.005428,4.005428 0 0 0 6.842624,7.781419 L 7.307889,7.262808 7.245278,7.100565 7.293517,6.846479 7.087444,6.973635 6.183614,7.380979 5.767501,7.228962 5.485853,6.903485 5.507712,6.407217 6.004198,5.674165 6.039096,5.437604 6.205484,5.134022 5.972075,5.063849 5.876853,4.546885 6.319495,4.431663 5.977711,4.094251 6.15288,4.010925 6.081715,3.923227 6.214273,3.927447 6.284446,3.650197 6.415974,3.436793 6.253731,3.172696 6.002798,2.984151 5.923881,2.492266 5.946921,2.04524 6.306266,1.975305 6.253655,1.645436 5.950111,1.334337 5.441917,1.083397 5.257741,0.8378505 4.541225,0.7021437 4.037195,0.7284492 3.650325,0.7896147 3.780887,0.5967872 Z M 6.20551,5.134043 6.516617,5.024411 7.004337,4.669475 7.131267,4.914817 7.597065,4.836128 7.588246,4.634426 7.798502,4.564253 8.035063,4.203915 7.908134,3.827045 7.767825,4.08554 7.512482,3.884065 7.439156,4.024148 7.512482,4.282643 7.26714,4.069234 6.951662,3.905999 6.871489,4.006623 7.280278,4.173238 7.267238,4.424171 7.315478,4.573034 7.131301,4.555396 7.228999,4.327616 6.801436,4.094208 6.534198,4.422838 6.442128,4.897187 Z M 2.811051,0.9066846 a 4.005428,4.005428 0 0 0 -4.25e-5,0 A 4.005428,4.005428 0 0 0 0.4974902,4.542323 4.005428,4.005428 0 0 0 1.730952,7.43723 L 1.144776,6.402825 1.238086,6.174818 1.013451,5.871274 0.6760433,4.819807 0.6716717,4.029757 1.067311,2.733439 1.803293,1.921686 2.756589,1.1711 Z M 3.514703,1.338936 4.296996,1.553571 4.730864,1.650035 4.889727,1.750666 4.853648,1.934828 4.897289,2.251544 4.889651,2.505641 4.38461,2.8092 4.063504,3.239918 3.818162,2.914436 3.949501,2.474948 4.063504,1.957985 3.835724,1.80329 3.756796,1.855908 3.562857,1.650043 Z M 6.201124,2.330465 6.332651,2.778502 6.51782,3.361237 6.767534,3.09837 6.60989,2.809194 6.688807,2.531944 6.55165,2.725886 Z m 1.422247,0.332802 0.09625,0.293778 0.19292,0.09625 0.119405,0.175392 0.01764,-0.162235 z m -0.105223,0.403178 -0.01304,0.162236 0.05698,0.05678 v 0.09208 L 7.394258,3.352457 7.544567,3.760021 7.614741,3.743716 7.689059,3.514698 7.838149,3.370002 7.767976,3.243065 7.588435,3.221131 Z M 8.352568,3.499151 8.241204,3.681104 8.447866,3.821551 A 4.005428,4.005428 0 0 0 8.447439,3.829552 4.005428,4.005428 0 0 0 8.352568,3.499151 Z M 8.09772,4.406616 8.487968,4.880501 a 4.005428,4.005428 0 0 0 4.37e-4,-0.0031 L 8.373724,4.620198 Z"
  />
  <text
    style="font-size:1.24;font-family:'JetBrains Mono';fill:#cdd6f4"
    x="9.5"
    y="5"
    id="banner-text"
  >
    Hello, world!
  </text>
  <circle
    style="fill:#cdd6f4"
    cx="18"
    cy="1"
    r="0.1"
    id="star1"
  />
  <circle
    style="fill:#cdd6f4"
    cx="20"
    cy="3"
    r="0.1"
    id="star2"
  />
  <circle
    style="fill:#cdd6f4"
    cx="13"
    cy="1"
    r="0.1"
    id="star3"
  />
  <circle
    style="fill:#cdd6f4"
    cx="15"
    cy="2.5"
    r="0.1"
    id="star4"
  />
  <circle
    style="fill:#cdd6f4"
    cx="10"
    cy="2.4"
    r="0.1"
    id="star5"
  />
  <circle
    style="fill:#cdd6f4"
    cx="11"
    cy="7.5"
    r="0.1"
    id="star6"
  />
  <circle
    style="fill:#cdd6f4"
    cx="16.5"
    cy="6.7"
    r="0.1"
    id="star7"
  />
  <circle
    style="fill:#cdd6f4"
    cx="20"
    cy="8"
    r="0.1"
    id="star8"
  />
  <circle
    style="fill:#cdd6f4"
    cx="1"
    cy="1"
    r="0.1"
    id="star9"
  />
</svg>
