<?xml version="1.0" encoding="UTF-8" standalone="no"?>
<!-- Created with Inkscape (http://www.inkscape.org/) -->

<svg
   width="1866.667"
   height="800"
   viewBox="0 0 493.88896 211.66667"
   version="1.1"
   id="svg1"
   xml:space="preserve"
   inkscape:version="1.4.2 (ebf0e940d0, 2025-05-08)"
   sodipodi:docname="hello-world.svg"
   xmlns:inkscape="http://www.inkscape.org/namespaces/inkscape"
   xmlns:sodipodi="http://sodipodi.sourceforge.net/DTD/sodipodi-0.dtd"
   xmlns="http://www.w3.org/2000/svg"
   xmlns:svg="http://www.w3.org/2000/svg"><sodipodi:namedview
     id="namedview1"
     pagecolor="#ffffff"
     bordercolor="#000000"
     borderopacity="0.25"
     inkscape:showpageshadow="2"
     inkscape:pageopacity="0.0"
     inkscape:pagecheckerboard="0"
     inkscape:deskcolor="#d1d1d1"
     inkscape:document-units="px"
     inkscape:zoom="3.5847924"
     inkscape:cx="808.97293"
     inkscape:cy="253.57117"
     inkscape:window-width="2736"
     inkscape:window-height="2152"
     inkscape:window-x="0"
     inkscape:window-y="0"
     inkscape:window-maximized="0"
     inkscape:current-layer="layer1" /><defs
     id="defs1" /><g
     inkscape:label="Layer 1"
     inkscape:groupmode="layer"
     id="layer1"><rect
       style="opacity:1;fill:#181825;fill-opacity:1;stroke:none;stroke-width:2.64583;stroke-linecap:round;stroke-linejoin:round"
       id="rect10"
       width="493.88898"
       height="211.66666"
       x="-7.1054274e-15"
       y="0" /><circle
       style="opacity:1;fill:#a6e3a1;fill-opacity:1;stroke:none;stroke-width:2.54899998;stroke-linecap:round;stroke-linejoin:round;stroke-dasharray:none"
       id="path1"
       cx="105.84039"
       cy="106.77977"
       r="94.227943" /><path
       id="path2"
       style="opacity:1;fill:#89b4fa;stroke:#1e1e2e;stroke-width:1.99999999;stroke-linecap:round;stroke-linejoin:round;fill-opacity:1;stroke-opacity:1;stroke-dasharray:none;stroke-dashoffset:0;paint-order:normal"
       d="M 89.066397 14.057023 A 94.227943 94.227943 0 0 0 66.089506 21.347017 C 66.597667 21.112409 82.772725 19.518705 82.772725 19.518705 L 84.442907 22.54591 L 73.796012 29.121736 L 75.674967 31.62701 L 79.223587 31.522623 L 81.206929 41.125138 L 86.425732 44.987435 L 85.381868 61.270678 L 77.553405 65.550004 L 74.317944 57.303995 L 79.849906 54.694852 L 76.823217 51.458874 L 59.18295 54.590466 L 56.573291 64.088594 L 57.512768 67.950891 L 55.216784 75.048649 L 59.391723 70.038618 L 70.977579 59.600496 L 73.900398 65.132458 L 71.917057 69.829846 L 77.449536 68.890368 L 78.910428 85.9038 L 58.556632 86.738891 L 66.489481 88.51346 L 70.038618 94.880513 L 59.18295 97.803332 L 48.536055 98.847196 L 42.064616 103.75284 L 34.236153 105.10986 L 31.731396 115.96501 L 29.434896 115.12992 L 30.687532 105.10986 L 22.650297 94.67174 L 18.057812 106.3625 L 19.205546 113.46026 L 22.441524 112.31201 L 24.424866 115.12992 L 21.084501 120.55802 L 25.364343 127.447 L 23.798547 134.2316 L 27.555941 139.34602 L 54.17292 162.1007 L 68.159663 175.25235 L 94.462967 188.29962 L 95.715604 191.22244 L 88.409073 194.14525 L 78.223649 196.86964 A 94.227943 94.227943 0 0 0 105.84057 201.00788 A 94.227943 94.227943 0 0 0 161.01394 183.16556 L 171.70373 170.86864 L 170.45109 167.00634 L 171.59934 160.95245 L 166.69318 163.97965 L 145.39991 173.68655 L 135.48424 169.82477 L 129.0128 162.30947 L 129.53421 150.72362 L 141.12058 133.50089 L 141.95568 127.86455 L 145.92184 120.87117 L 140.59865 119.20099 L 138.09338 106.88443 L 148.63589 104.37916 L 140.49427 96.341922 L 144.6692 94.358581 L 143.20831 92.270853 L 146.13061 92.375239 L 147.8008 86.008186 L 150.93239 80.684997 L 147.07009 74.631103 L 141.32936 70.142488 L 139.4504 58.661018 L 139.76356 48.014123 L 148.32273 46.344458 L 147.07009 38.724768 L 140.07672 31.313851 L 127.96893 25.573116 L 123.5847 19.727478 L 106.98882 16.492016 L 94.984899 17.118335 L 86.008186 18.579228 L 89.066914 14.057023 L 89.066397 14.057023 z M 145.92184 120.87117 L 153.33276 118.26151 L 164.71036 109.80673 L 167.73705 115.65185 L 178.59272 113.77342 L 178.38394 108.97164 L 183.39397 107.30146 L 189.03032 98.951582 L 186.00363 89.974869 L 182.66327 96.13315 L 176.81815 91.331892 L 174.83481 94.67174 L 176.81815 100.83002 L 170.97303 95.506831 L 163.45772 91.853824 L 161.78754 94.254194 L 171.28618 98.220877 L 170.97303 103.96161 L 172.12128 107.51023 L 167.73705 107.09269 L 169.82477 101.66511 L 160.11736 96.341922 L 153.7503 104.17038 L 151.55819 115.23431 L 145.92184 120.87117 z M 66.089506 21.347017 A 94.227943 94.227943 0 0 0 66.088472 21.347017 A 94.227943 94.227943 0 0 0 11.612211 106.77953 A 94.227943 94.227943 0 0 0 40.71276 174.87718 L 27.034009 150.61923 L 29.01735 145.19114 L 23.902934 138.19777 L 15.865698 113.1471 L 15.761312 94.567354 L 24.946798 64.401753 L 42.482161 45.300594 L 64.714912 27.660327 L 66.089506 21.347017 z M 82.772725 31.418237 L 100.93441 36.532654 L 111.26814 38.829154 L 114.81676 41.229524 L 114.19096 45.613753 L 115.23431 52.920284 L 114.81676 58.974178 L 103.02213 65.967549 L 95.611218 75.988126 L 89.766096 68.472823 L 92.897171 58.243473 L 95.611218 45.926912 L 90.183642 42.482161 L 88.304687 43.734798 L 83.920975 38.829154 L 82.772725 31.418237 z M 145.81745 54.799239 L 148.94905 65.236844 L 153.12399 79.119201 L 159.07349 72.856534 L 155.3161 65.967549 L 157.19506 59.600496 L 154.16785 63.984208 L 145.81745 54.799239 z M 179.21903 62.731571 L 181.51502 69.725459 L 186.10802 72.021443 L 188.71716 76.196899 L 189.13471 72.334602 L 179.21903 62.731571 z M 176.71376 72.334602 L 176.4006 76.196899 L 177.75762 77.553405 L 177.75762 79.745519 L 173.99971 78.910428 L 177.34008 88.617846 L 179.01026 87.991528 L 180.78431 82.772725 L 184.33345 79.327974 L 182.66327 76.301285 L 178.38394 75.779353 L 176.71376 72.334602 z M 196.5973 82.265779 L 193.93648 86.738891 L 198.53827 89.867899 A 94.227943 94.227943 0 0 0 198.53723 89.863248 A 94.227943 94.227943 0 0 0 196.5973 82.265779 z M 190.28296 103.54407 L 199.52632 114.79506 A 94.227943 94.227943 0 0 0 199.53666 114.64623 L 196.85878 108.86726 L 190.28296 103.54407 z "
       inkscape:label="water" /><circle
       style="opacity:1;fill:none;fill-opacity:1;stroke:#1e1e2e;stroke-width:1.99999999;stroke-linecap:round;stroke-linejoin:round;stroke-opacity:1"
       id="circle10"
       cx="105.84039"
       cy="106.77977"
       r="94.227943" /><text
       xml:space="preserve"
       style="font-size:29.3045px;font-family:'JetBrains Mono';-inkscape-font-specification:'JetBrains Mono';text-align:start;writing-mode:lr-tb;direction:ltr;text-anchor:start;opacity:1;fill:#cdd6f4;fill-opacity:1;stroke:none;stroke-width:6.92233;stroke-linecap:round;stroke-linejoin:round;stroke-opacity:1"
       x="239.56563"
       y="118.8022"
       id="text11"><tspan
         sodipodi:role="line"
         id="tspan11"
         style="font-size:29.3045px;fill:#cdd6f4;fill-opacity:1;stroke:none;stroke-width:6.92233"
         x="239.56563"
         y="118.8022">Hello, world!</tspan></text><circle
       style="opacity:1;fill:#cdd6f4;fill-opacity:1;stroke:none;stroke-width:2.549;stroke-linecap:round;stroke-linejoin:round;stroke-dasharray:none;stroke-dashoffset:0;stroke-opacity:1;paint-order:normal"
       id="path11"
       cx="432.06711"
       cy="24.061132"
       r="2.2142148" /><circle
       style="fill:#cdd6f4;fill-opacity:1;stroke:none;stroke-width:2.549;stroke-linecap:round;stroke-linejoin:round;stroke-dasharray:none;stroke-dashoffset:0;stroke-opacity:1;paint-order:normal"
       id="path11-2"
       cx="471.16333"
       cy="68.257774"
       r="2.2142148" /><circle
       style="fill:#cdd6f4;fill-opacity:1;stroke:none;stroke-width:2.549;stroke-linecap:round;stroke-linejoin:round;stroke-dasharray:none;stroke-dashoffset:0;stroke-opacity:1;paint-order:normal"
       id="path11-6"
       cx="305.69128"
       cy="22.057964"
       r="2.2142148" /><circle
       style="fill:#cdd6f4;fill-opacity:1;stroke:none;stroke-width:2.549;stroke-linecap:round;stroke-linejoin:round;stroke-dasharray:none;stroke-dashoffset:0;stroke-opacity:1;paint-order:normal"
       id="path11-7"
       cx="364.4288"
       cy="60.157963"
       r="2.2142148" /><circle
       style="fill:#cdd6f4;fill-opacity:1;stroke:none;stroke-width:2.549;stroke-linecap:round;stroke-linejoin:round;stroke-dasharray:none;stroke-dashoffset:0;stroke-opacity:1;paint-order:normal"
       id="path11-3"
       cx="238.22253"
       cy="57.776714"
       r="2.2142148" /><circle
       style="fill:#cdd6f4;fill-opacity:1;stroke:none;stroke-width:2.549;stroke-linecap:round;stroke-linejoin:round;stroke-dasharray:none;stroke-dashoffset:0;stroke-opacity:1;paint-order:normal"
       id="path11-28"
       cx="265.47461"
       cy="177.36838"
       r="2.2142148" /><circle
       style="fill:#cdd6f4;fill-opacity:1;stroke:none;stroke-width:2.549;stroke-linecap:round;stroke-linejoin:round;stroke-dasharray:none;stroke-dashoffset:0;stroke-opacity:1;paint-order:normal"
       id="path11-1"
       cx="389.8288"
       cy="159.11214"
       r="2.2142148" /><circle
       style="fill:#cdd6f4;fill-opacity:1;stroke:none;stroke-width:2.549;stroke-linecap:round;stroke-linejoin:round;stroke-dasharray:none;stroke-dashoffset:0;stroke-opacity:1;paint-order:normal"
       id="path11-9"
       cx="464.1767"
       cy="185.30588"
       r="2.2142148" /><circle
       style="fill:#cdd6f4;fill-opacity:1;stroke:none;stroke-width:2.549;stroke-linecap:round;stroke-linejoin:round;stroke-dasharray:none;stroke-dashoffset:0;stroke-opacity:1;paint-order:normal"
       id="path11-5"
       cx="26.291288"
       cy="14.649632"
       r="2.2142148" /></g></svg>
