<?xml version="1.0" encoding="UTF-8" standalone="no"?>
<!-- Created with Inkscape (http://www.inkscape.org/) -->

<svg
   width="210mm"
   height="90mm"
   viewBox="0 0 210 90"
   version="1.1"
   id="svg1"
   xml:space="preserve"
   inkscape:version="1.4.2 (ebf0e940d0, 2025-05-08)"
   sodipodi:docname="pocket-kb-sketch.svg"
   xmlns:inkscape="http://www.inkscape.org/namespaces/inkscape"
   xmlns:sodipodi="http://sodipodi.sourceforge.net/DTD/sodipodi-0.dtd"
   xmlns="http://www.w3.org/2000/svg"
   xmlns:svg="http://www.w3.org/2000/svg"><sodipodi:namedview
     id="namedview1"
     pagecolor="#ffffff"
     bordercolor="#000000"
     borderopacity="0.25"
     inkscape:showpageshadow="2"
     inkscape:pageopacity="0.0"
     inkscape:pagecheckerboard="0"
     inkscape:deskcolor="#d1d1d1"
     inkscape:document-units="mm"
     inkscape:zoom="2.534831"
     inkscape:cx="336.90609"
     inkscape:cy="244.59224"
     inkscape:window-width="3840"
     inkscape:window-height="2160"
     inkscape:window-x="0"
     inkscape:window-y="0"
     inkscape:window-maximized="0"
     inkscape:current-layer="layer1" /><defs
     id="defs1" /><g
     inkscape:label="Layer 1"
     inkscape:groupmode="layer"
     id="layer1"><rect
       style="fill:#181825;stroke-width:0.499999;stroke-linecap:round;stroke-linejoin:round"
       id="rect1"
       width="80.220001"
       height="90"
       x="0"
       y="0" /><rect
       style="fill:#cdd6f4;stroke:none;stroke-width:0.499999;stroke-linecap:round;stroke-linejoin:round"
       id="rect21"
       width="129.78"
       height="90"
       x="80.220001"
       y="0" /><path
       style="fill:none;stroke:#181825;stroke-width:1;stroke-linecap:round;stroke-linejoin:round"
       d="m 105.37223,26.42126 58.1736,31.02592 -2.73758,13.231642 -53.1547,-34.980203 z"
       id="path1" /><path
       style="fill:none;stroke:#181825;stroke-width:1;stroke-linecap:round;stroke-linejoin:round"
       d="m 110.6023,37.639145 0.0682,0.827672 16.85726,11.02309 -0.13013,-0.798074"
       id="path2" /><path
       style="fill:none;stroke:#181825;stroke-width:1;stroke-linecap:round;stroke-linejoin:round"
       d="m 128.02165,49.102525 -0.49393,0.387382 -0.13013,-0.798074 z"
       id="path3" /><path
       style="fill:none;stroke:#181825;stroke-width:1;stroke-linecap:round;stroke-linejoin:round"
       d="m 130.13644,50.494232 0.0798,0.770124 29.27841,19.465164 0.0256,-0.898257"
       id="path4" /><path
       style="fill:none;stroke:#181825;stroke-width:1;stroke-linecap:round;stroke-linejoin:round"
       d="m 159.49468,70.729518 0.56778,-0.541488 -0.54214,-0.356768 z"
       id="path5" /><path
       style="fill:none;stroke:#181825;stroke-width:1;stroke-linecap:round;stroke-linejoin:round"
       d="M 163.54583,57.44718 184.84778,35.993344 181.27201,47.33906 160.80825,70.678821 Z"
       id="path6" /><path
       style="fill:none;stroke:#181825;stroke-width:1;stroke-linecap:round;stroke-linejoin:round"
       d="M 163.54583,57.44718 184.84778,35.993344 130.37759,19.270509 105.37223,26.42126 Z"
       id="path7" /><path
       style="fill:none;stroke:#181825;stroke-width:1;stroke-linecap:round;stroke-linejoin:round"
       d="m 139.68672,44.722322 19.75274,-11.761285 19.5813,6.881975 -17.32209,16.619019 -2.0691,11.859429 -19.88549,-12.889444 z"
       id="path8" /><path
       style="fill:none;stroke:#181825;stroke-width:1;stroke-linecap:round;stroke-linejoin:round"
       d="m 109.77593,25.161941 34.22295,16.992806"
       id="path9" /><path
       style="fill:none;stroke:#181825;stroke-width:1;stroke-linecap:round;stroke-linejoin:round"
       d="m 159.43946,32.961037 3.07977,-1.672966 c 0,0 -34.44012,-11.36027 -34.39991,-11.371767"
       id="path10" /><path
       style="fill:none;stroke:#181825;stroke-width:1;stroke-linecap:round;stroke-linejoin:round"
       d="m 116.36257,28.432421 18.52706,-6.267184"
       id="path11" /><path
       style="fill:none;stroke:#181825;stroke-width:1;stroke-linecap:round;stroke-linejoin:round"
       d="m 123.64151,32.046656 18.96596,-7.330768"
       id="path12" /><path
       style="fill:none;stroke:#181825;stroke-width:1;stroke-linecap:round;stroke-linejoin:round"
       d="m 132.76467,36.576596 18.65648,-8.950639"
       id="path13" /><path
       style="fill:none;stroke:#181825;stroke-width:1;stroke-linecap:round;stroke-linejoin:round"
       d="M 154.31353,36.013146 119.66322,22.334484"
       id="path14" /><path
       style="font-weight:bold;font-size:10px;font-family:'JetBrains Mono';-inkscape-font-specification:'JetBrains Mono Bold';fill:#cdd6f4;stroke-width:0.5;stroke-linecap:round;stroke-linejoin:round"
       d="m 4.5332679,84.547058 v -7.3 h 4.38 v 1.1 h -3.15 v 1.9 h 2.8 v 1.06 h -2.8 v 2.14 h 3.15 v 1.1 z m 7.5100041,0.1 q -0.84,0 -1.33,-0.47 -0.48,-0.48 -0.48,-1.25 0,-0.8 0.55,-1.27 0.55,-0.48 1.51,-0.48 h 1.34 v -0.39 q 0,-0.83 -0.97,-0.83 -0.44,0 -0.7,0.17 -0.26,0.17 -0.29,0.48 h -1.2 q 0.04,-0.74 0.62,-1.2 0.59,-0.46 1.58,-0.46 1.05,0 1.63,0.49 0.58,0.49 0.58,1.38 v 3.73 h -1.22 v -1.03 q -0.07,0.53 -0.5,0.83 -0.43,0.3 -1.12,0.3 z m 0.4,-1.02 q 0.55,0 0.87,-0.27 0.32,-0.27 0.32,-0.72 v -0.65 h -1.28 q -0.41,0 -0.65,0.23 -0.24,0.23 -0.24,0.59 0,0.37 0.25,0.6 0.26,0.22 0.73,0.22 z m 4.180003,0.92 v -5.5 h 1.22 v 1.07 q 0.1,-0.54 0.49,-0.85 0.4,-0.32 1.03,-0.32 0.84,0 1.31,0.54 0.47,0.54 0.47,1.51 v 0.52 h -1.25 v -0.46 q 0,-0.5 -0.26,-0.76 -0.26,-0.27 -0.74,-0.27 -0.5,0 -0.76,0.3 -0.26,0.3 -0.26,0.85 v 3.37 z m 8.920004,0 q -0.82,0 -1.32,-0.49 -0.49,-0.49 -0.49,-1.29 v -4.39 h -1.81 v -1.13 h 3.06 v 5.49 q 0,0.31 0.17,0.5 0.18,0.18 0.48,0.18 h 1.61 v 1.13 z m 3.760004,1.8 0.78,-2.1 -2.07,-5.2 h 1.32 l 1.06,2.81 q 0.09,0.25 0.18,0.55 0.09,0.29 0.13,0.54 0.03,-0.25 0.11,-0.54 0.09,-0.3 0.18,-0.55 l 0.98,-2.81 h 1.32 l -2.68,7.3 z m 13.380008,-1.7 q -0.74,0 -1.3,-0.26 -0.55,-0.26 -0.86,-0.74 -0.3,-0.49 -0.3,-1.16 h 1.23 q 0,0.49 0.33,0.78 0.34,0.29 0.9,0.29 0.54,0 0.85,-0.28 0.32,-0.29 0.32,-0.77 0,-0.36 -0.21,-0.63 -0.2,-0.28 -0.58,-0.38 l -0.98,-0.25 q -0.79,-0.2 -1.25,-0.75 -0.46,-0.55 -0.46,-1.31 0,-0.93 0.61,-1.48 0.61,-0.56 1.63,-0.56 0.69,0 1.2,0.25 0.52,0.25 0.8,0.71 0.28,0.45 0.28,1.06 h -1.22 q 0,-0.42 -0.29,-0.68 -0.29,-0.26 -0.77,-0.26 -0.47,0 -0.75,0.26 -0.27,0.25 -0.27,0.66 0,0.34 0.19,0.56 0.2,0.22 0.55,0.32 l 1.01,0.25 q 0.81,0.2 1.27,0.8 0.47,0.6 0.47,1.43 0,0.65 -0.3,1.13 -0.29,0.48 -0.83,0.75 -0.54,0.26 -1.27,0.26 z m 3.790004,-0.1 v -7.3 h 1.25 v 3.96 h 0.88 l 1.31,-2.16 h 1.39 l -1.63,2.66 1.69,2.84 h -1.42 l -1.34,-2.28 h -0.88 v 2.28 z m 8.190003,0.1 q -0.7,0 -1.22,-0.27 -0.52,-0.27 -0.81,-0.76 -0.28,-0.5 -0.28,-1.17 v -1.3 q 0,-0.67 0.28,-1.16 0.29,-0.5 0.81,-0.77 0.52,-0.27 1.22,-0.27 0.69,0 1.2,0.27 0.52,0.27 0.8,0.76 0.29,0.48 0.29,1.13 v 1 h -3.4 v 0.38 q 0,0.56 0.29,0.85 0.29,0.28 0.82,0.28 0.39,0 0.66,-0.13 0.28,-0.14 0.33,-0.4 h 1.24 q -0.13,0.71 -0.74,1.14 -0.61,0.42 -1.49,0.42 z m -1.11,-3.54 v 0.19 l 2.2,-0.01 v -0.19 q 0,-0.57 -0.28,-0.88 -0.28,-0.31 -0.81,-0.31 -0.55,0 -0.83,0.32 -0.28,0.31 -0.28,0.88 z m 7.650004,3.44 q -0.77,0 -1.23,-0.44 -0.45,-0.45 -0.45,-1.21 v -2.72 h -1.52 v -1.13 h 1.52 v -1.55 h 1.26 v 1.55 h 2.19 v 1.13 h -2.19 v 2.69 q 0,0.24 0.13,0.4 0.14,0.15 0.38,0.15 h 1.63 v 1.13 z m 5.540004,0.1 q -0.71,0 -1.24,-0.26 -0.52,-0.27 -0.81,-0.75 -0.29,-0.49 -0.29,-1.15 v -1.38 q 0,-0.66 0.29,-1.14 0.29,-0.49 0.81,-0.75 0.53,-0.27 1.24,-0.27 1.03,0 1.65,0.54 0.63,0.53 0.66,1.45 h -1.23 q -0.03,-0.43 -0.33,-0.66 -0.29,-0.24 -0.75,-0.24 -0.51,0 -0.8,0.28 -0.29,0.27 -0.29,0.78 v 1.39 q 0,0.51 0.29,0.79 0.29,0.28 0.8,0.28 0.47,0 0.76,-0.23 0.29,-0.24 0.32,-0.67 h 1.23 q -0.03,0.92 -0.66,1.46 -0.62,0.53 -1.65,0.53 z m 3.680008,-0.1 v -7.3 h 1.25 v 1.8 l -0.03,1.02 q 0.1,-0.52 0.49,-0.82 0.39,-0.3 0.99,-0.3 0.81,0 1.29,0.54 0.49,0.54 0.49,1.45 v 3.61 h -1.25 v -3.46 q 0,-0.51 -0.27,-0.78 -0.26,-0.28 -0.71,-0.28 -0.47,0 -0.74,0.28 -0.26,0.28 -0.26,0.8 v 3.44 z"
       id="text14"
       aria-label="Early Sketch" /><g
       id="text16"
       style="font-weight:bold;font-size:6px;font-family:'JetBrains Mono';-inkscape-font-specification:'JetBrains Mono Bold';fill:#cdd6f4;stroke-width:0.499999;stroke-linecap:round;stroke-linejoin:round"
       aria-label="Parts:&#10;- 1x battery&#10;- 1x esp32c3 board&#10;- 8x kailh choc&#10;- ?x magnets"><path
         style="stroke-width:0.5"
         d="M 5.0825382,11.15365 V 6.7736503 h 1.458 q 0.438,0 0.762,0.168 0.33,0.168 0.51,0.474 0.18,0.3 0.18,0.708 0,0.408 -0.18,0.714 -0.18,0.3 -0.51,0.468 -0.324,0.168 -0.762,0.168 h -0.708 V 11.15365 Z m 0.75,-2.3399997 h 0.708 q 0.318,0 0.504,-0.192 0.186,-0.192 0.186,-0.498 0,-0.306 -0.186,-0.498 -0.186,-0.192 -0.504,-0.192 h -0.708 z M 9.6545405,11.21365 q -0.504,0 -0.798,-0.282 -0.288,-0.288 -0.288,-0.75 0,-0.4799997 0.33,-0.7619997 0.33,-0.288 0.906,-0.288 h 0.8040005 v -0.234 q 0,-0.498 -0.582,-0.498 -0.2640005,0 -0.4200005,0.102 -0.156,0.102 -0.174,0.288 h -0.72 q 0.024,-0.444 0.372,-0.72 0.354,-0.276 0.9480005,-0.276 0.63,0 0.978,0.294 0.348,0.294 0.348,0.828 V 11.15365 h -0.732 v -0.618 q -0.042,0.318 -0.3,0.498 -0.258,0.18 -0.6720005,0.18 z m 0.24,-0.612 q 0.3300005,0 0.5220005,-0.162 0.192,-0.162 0.192,-0.432 V 9.6176503 H 9.8405405 q -0.246,0 -0.39,0.138 -0.144,0.138 -0.144,0.3539997 0,0.222 0.15,0.36 0.156,0.132 0.438,0.132 z m 2.5080025,0.552 V 7.8536503 h 0.732 v 0.642 q 0.06,-0.324 0.294,-0.51 0.24,-0.192 0.618,-0.192 0.504,0 0.786,0.324 0.282,0.324 0.282,0.906 v 0.312 h -0.75 v -0.276 q 0,-0.3 -0.156,-0.456 -0.156,-0.162 -0.444,-0.162 -0.3,0 -0.456,0.18 -0.156,0.18 -0.156,0.51 V 11.15365 Z m 5.148002,0 q -0.462,0 -0.738,-0.264 -0.27,-0.27 -0.27,-0.726 V 8.5316503 h -0.912 v -0.678 h 0.912 v -0.93 h 0.756 v 0.93 h 1.314 v 0.678 h -1.314 V 10.14565 q 0,0.144 0.078,0.24 0.084,0.09 0.228,0.09 h 0.978 v 0.678 z m 3.132002,0.054 q -0.588,0 -0.93,-0.264 -0.342,-0.27 -0.342,-0.726 h 0.738 q 0,0.192 0.138,0.294 0.144,0.102 0.396,0.102 h 0.264 q 0.27,0 0.414,-0.102 0.15,-0.102 0.15,-0.294 0,-0.18 -0.102,-0.2639997 -0.102,-0.09 -0.312,-0.12 l -0.822,-0.108 q -0.396,-0.054 -0.612,-0.306 -0.21,-0.252 -0.21,-0.654 0,-0.468 0.312,-0.714 0.312,-0.252 0.9,-0.252 h 0.276 q 0.552,0 0.888,0.252 0.336,0.252 0.348,0.672 h -0.744 q -0.006,-0.156 -0.138,-0.246 -0.132,-0.096 -0.354,-0.096 h -0.276 q -0.24,0 -0.366,0.102 -0.126,0.096 -0.126,0.264 0,0.15 0.09,0.222 0.096,0.072 0.276,0.09 l 0.774,0.108 q 0.456,0.054 0.684,0.324 0.234,0.264 0.234,0.7139997 0,0.48 -0.33,0.744 -0.324,0.258 -0.954,0.258 z M 24.42055,8.7956503 q -0.258,0 -0.408,-0.138 -0.15,-0.138 -0.15,-0.366 0,-0.222 0.15,-0.36 0.15,-0.138 0.408,-0.138 0.258,0 0.408,0.138 0.15,0.138 0.15,0.36 0,0.228 -0.15,0.366 -0.15,0.138 -0.408,0.138 z m 0,2.4179997 q -0.258,0 -0.408,-0.138 -0.15,-0.138 -0.15,-0.36 0,-0.228 0.15,-0.366 0.15,-0.138 0.408,-0.138 0.258,0 0.408,0.138 0.15,0.138 0.15,0.366 0,0.222 -0.15,0.36 -0.15,0.138 -0.408,0.138 z"
         id="path15" /><path
         style="stroke-width:0.5"
         d="m 5.4605382,17.02165 v -0.696 h 1.92 v 0.696 z m 6.8640048,1.632 v -0.678 h 1.14 v -2.976 l -1.146,0.84 v -0.84 l 1.008,-0.726 h 0.888 v 3.702 h 0.918 v 0.678 z m 3.312002,0 1.152,-1.704 -1.074,-1.596 h 0.846 l 0.51,0.81 q 0.048,0.072 0.09,0.162 0.042,0.09 0.06,0.144 0.024,-0.054 0.06,-0.144 0.042,-0.09 0.09,-0.162 l 0.51,-0.81 h 0.852 l -1.074,1.596 1.146,1.704 h -0.852 l -0.57,-0.906 q -0.048,-0.072 -0.096,-0.162 -0.042,-0.096 -0.066,-0.15 -0.024,0.054 -0.066,0.15 -0.042,0.09 -0.09,0.162 l -0.576,0.906 z m 9.084005,0.06 q -0.348,0 -0.582,-0.174 -0.234,-0.174 -0.324,-0.486 v 0.6 h -0.732 v -4.38 h 0.75 v 0.924 l -0.024,0.756 q 0.096,-0.312 0.33,-0.486 0.24,-0.174 0.582,-0.174 0.486,0 0.78,0.342 0.294,0.342 0.294,0.924 v 0.894 q 0,0.576 -0.3,0.918 -0.294,0.342 -0.774,0.342 z m -0.282,-0.648 q 0.288,0 0.444,-0.156 0.162,-0.156 0.162,-0.48 v -0.852 q 0,-0.324 -0.162,-0.48 -0.156,-0.156 -0.444,-0.156 -0.288,0 -0.45,0.174 -0.156,0.174 -0.156,0.492 v 0.792 q 0,0.318 0.156,0.492 0.162,0.174 0.45,0.174 z m 3.216002,0.648 q -0.504,0 -0.798,-0.282 -0.288,-0.288 -0.288,-0.75 0,-0.48 0.33,-0.762 0.33,-0.288 0.906,-0.288 h 0.804 v -0.234 q 0,-0.498 -0.582,-0.498 -0.264,0 -0.42,0.102 -0.156,0.102 -0.174,0.288 h -0.72 q 0.024,-0.444 0.372,-0.72 0.354,-0.276 0.948,-0.276 0.63,0 0.978,0.294 0.348,0.294 0.348,0.828 v 2.238 h -0.732 v -0.618 q -0.042,0.318 -0.3,0.498 -0.258,0.18 -0.672,0.18 z m 0.24,-0.612 q 0.33,0 0.522,-0.162 0.192,-0.162 0.192,-0.432 v -0.39 h -0.768 q -0.246,0 -0.39,0.138 -0.144,0.138 -0.144,0.354 0,0.222 0.15,0.36 0.156,0.132 0.438,0.132 z m 4.056002,0.552 q -0.462,0 -0.738,-0.264 -0.27,-0.27 -0.27,-0.726 v -1.632 h -0.912 v -0.678 h 0.912 v -0.93 h 0.756 v 0.93 h 1.314 v 0.678 h -1.314 v 1.614 q 0,0.144 0.078,0.24 0.084,0.09 0.228,0.09 h 0.978 v 0.678 z m 3.600003,0 q -0.462,0 -0.738,-0.264 -0.27,-0.27 -0.27,-0.726 v -1.632 h -0.912 v -0.678 h 0.912 v -0.93 h 0.756 v 0.93 h 1.314 v 0.678 h -1.314 v 1.614 q 0,0.144 0.078,0.24 0.084,0.09 0.228,0.09 h 0.978 v 0.678 z m 3.276002,0.06 q -0.42,0 -0.732,-0.162 -0.312,-0.162 -0.486,-0.456 -0.168,-0.3 -0.168,-0.702 v -0.78 q 0,-0.402 0.168,-0.696 0.174,-0.3 0.486,-0.462 0.312,-0.162 0.732,-0.162 0.414,0 0.72,0.162 0.312,0.162 0.48,0.456 0.174,0.288 0.174,0.678 v 0.6 h -2.04 v 0.228 q 0,0.336 0.174,0.51 0.174,0.168 0.492,0.168 0.234,0 0.396,-0.078 0.168,-0.084 0.198,-0.24 h 0.744 q -0.078,0.426 -0.444,0.684 -0.366,0.252 -0.894,0.252 z m -0.666,-2.124 v 0.114 l 1.32,-0.006 v -0.114 q 0,-0.342 -0.168,-0.528 -0.168,-0.186 -0.486,-0.186 -0.33,0 -0.498,0.192 -0.168,0.186 -0.168,0.528 z m 3.042002,2.064 v -3.3 h 0.732 v 0.642 q 0.06,-0.324 0.294,-0.51 0.24,-0.192 0.618,-0.192 0.504,0 0.786,0.324 0.282,0.324 0.282,0.906 v 0.312 h -0.75 v -0.276 q 0,-0.3 -0.156,-0.456 -0.156,-0.162 -0.444,-0.162 -0.3,0 -0.456,0.18 -0.156,0.18 -0.156,0.51 v 2.022 z m 4.008002,1.08 0.468,-1.26 -1.242,-3.12 h 0.792 l 0.636,1.686 q 0.054,0.15 0.108,0.33 0.054,0.174 0.078,0.324 0.018,-0.15 0.066,-0.324 0.054,-0.18 0.108,-0.33 l 0.588,-1.686 h 0.792 l -1.608,4.38 z"
         id="path16" /><path
         style="stroke-width:0.5"
         d="m 5.4605382,24.52165 v -0.696 h 1.92 v 0.696 z m 6.8640048,1.632 v -0.678 h 1.14 v -2.976 l -1.146,0.84 v -0.84 l 1.008,-0.726 h 0.888 v 3.702 h 0.918 v 0.678 z m 3.312002,0 1.152,-1.704 -1.074,-1.596 h 0.846 l 0.51,0.81 q 0.048,0.072 0.09,0.162 0.042,0.09 0.06,0.144 0.024,-0.054 0.06,-0.144 0.042,-0.09 0.09,-0.162 l 0.51,-0.81 h 0.852 l -1.074,1.596 1.146,1.704 h -0.852 l -0.57,-0.906 q -0.048,-0.072 -0.096,-0.162 -0.042,-0.096 -0.066,-0.15 -0.024,0.054 -0.066,0.15 -0.042,0.09 -0.09,0.162 l -0.576,0.906 z m 8.790005,0.06 q -0.42,0 -0.732,-0.162 -0.312,-0.162 -0.486,-0.456 -0.168,-0.3 -0.168,-0.702 v -0.78 q 0,-0.402 0.168,-0.696 0.174,-0.3 0.486,-0.462 0.312,-0.162 0.732,-0.162 0.414,0 0.72,0.162 0.312,0.162 0.48,0.456 0.174,0.288 0.174,0.678 v 0.6 h -2.04 v 0.228 q 0,0.336 0.174,0.51 0.174,0.168 0.492,0.168 0.234,0 0.396,-0.078 0.168,-0.084 0.198,-0.24 h 0.744 q -0.078,0.426 -0.444,0.684 -0.366,0.252 -0.894,0.252 z m -0.666,-2.124 v 0.114 l 1.32,-0.006 v -0.114 q 0,-0.342 -0.168,-0.528 -0.168,-0.186 -0.486,-0.186 -0.33,0 -0.498,0.192 -0.168,0.186 -0.168,0.528 z m 4.122002,2.118 q -0.588,0 -0.93,-0.264 -0.342,-0.27 -0.342,-0.726 h 0.738 q 0,0.192 0.138,0.294 0.144,0.102 0.396,0.102 h 0.264 q 0.27,0 0.414,-0.102 0.15,-0.102 0.15,-0.294 0,-0.18 -0.102,-0.264 -0.102,-0.09 -0.312,-0.12 l -0.822,-0.108 q -0.396,-0.054 -0.612,-0.306 -0.21,-0.252 -0.21,-0.654 0,-0.468 0.312,-0.714 0.312,-0.252 0.9,-0.252 h 0.276 q 0.552,0 0.888,0.252 0.336,0.252 0.348,0.672 h -0.744 q -0.006,-0.156 -0.138,-0.246 -0.132,-0.096 -0.354,-0.096 h -0.276 q -0.24,0 -0.366,0.102 -0.126,0.096 -0.126,0.264 0,0.15 0.09,0.222 0.096,0.072 0.276,0.09 l 0.774,0.108 q 0.456,0.054 0.684,0.324 0.234,0.264 0.234,0.714 0,0.48 -0.33,0.744 -0.324,0.258 -0.954,0.258 z m 2.400002,1.026 v -4.38 h 0.732 v 0.606 q 0.09,-0.312 0.324,-0.486 0.234,-0.18 0.582,-0.18 0.318,0 0.558,0.156 0.246,0.156 0.378,0.444 0.138,0.282 0.138,0.66 v 0.894 q 0,0.57 -0.294,0.918 -0.294,0.348 -0.78,0.348 -0.348,0 -0.588,-0.18 -0.234,-0.18 -0.324,-0.504 l 0.024,0.78 v 0.924 z m 1.356,-1.668 q 0.288,0 0.444,-0.156 0.162,-0.156 0.162,-0.48 v -0.852 q 0,-0.324 -0.162,-0.48 -0.156,-0.156 -0.444,-0.156 -0.288,0 -0.45,0.174 -0.156,0.174 -0.156,0.492 v 0.792 q 0,0.318 0.156,0.492 0.162,0.174 0.45,0.174 z m 3.540003,0.648 q -0.648,0 -1.026,-0.336 -0.378,-0.342 -0.378,-0.924 h 0.756 q 0,0.276 0.174,0.444 0.174,0.162 0.48,0.162 0.3,0 0.474,-0.162 0.174,-0.168 0.174,-0.444 v -0.33 q 0,-0.294 -0.174,-0.456 -0.168,-0.168 -0.474,-0.168 h -0.552 v -0.6 l 1.008,-0.966 h -1.71 v -0.66 h 2.532 v 0.636 l -1.008,0.966 q 0.528,0.072 0.828,0.402 0.306,0.324 0.306,0.846 v 0.33 q 0,0.582 -0.384,0.924 -0.378,0.336 -1.026,0.336 z m 2.286002,-0.06 v -0.678 l 1.578,-1.614 q 0.384,-0.402 0.384,-0.816 0,-0.294 -0.174,-0.474 -0.168,-0.186 -0.456,-0.186 -0.294,0 -0.474,0.192 -0.174,0.186 -0.174,0.498 h -0.75 q 0,-0.408 0.18,-0.714 0.18,-0.306 0.498,-0.474 0.318,-0.174 0.738,-0.174 0.414,0 0.726,0.162 0.312,0.162 0.48,0.456 0.174,0.288 0.174,0.678 0,0.336 -0.162,0.672 -0.156,0.336 -0.522,0.696 l -1.104,1.098 h 1.842 v 0.678 z m 5.010002,0.06 q -0.426,0 -0.744,-0.156 -0.312,-0.162 -0.486,-0.45 -0.174,-0.294 -0.174,-0.69 v -0.828 q 0,-0.396 0.174,-0.684 0.174,-0.294 0.486,-0.45 0.318,-0.162 0.744,-0.162 0.618,0 0.99,0.324 0.378,0.318 0.396,0.87 h -0.738 q -0.018,-0.258 -0.198,-0.396 -0.174,-0.144 -0.45,-0.144 -0.306,0 -0.48,0.168 -0.174,0.162 -0.174,0.468 v 0.834 q 0,0.306 0.174,0.474 0.174,0.168 0.48,0.168 0.282,0 0.456,-0.138 0.174,-0.144 0.192,-0.402 h 0.738 q -0.018,0.552 -0.396,0.876 -0.372,0.318 -0.99,0.318 z m 3.504002,0 q -0.648,0 -1.026,-0.336 -0.378,-0.342 -0.378,-0.924 h 0.756 q 0,0.276 0.174,0.444 0.174,0.162 0.48,0.162 0.3,0 0.474,-0.162 0.174,-0.168 0.174,-0.444 v -0.33 q 0,-0.294 -0.174,-0.456 -0.168,-0.168 -0.474,-0.168 h -0.552 v -0.6 l 1.008,-0.966 h -1.71 v -0.66 h 2.532 v 0.636 l -1.008,0.966 q 0.528,0.072 0.828,0.402 0.306,0.324 0.306,0.846 v 0.33 q 0,0.582 -0.384,0.924 -0.378,0.336 -1.026,0.336 z m 7.542005,0 q -0.348,0 -0.582,-0.174 -0.234,-0.174 -0.324,-0.486 v 0.6 h -0.732 v -4.38 h 0.75 v 0.924 l -0.024,0.756 q 0.096,-0.312 0.33,-0.486 0.24,-0.174 0.582,-0.174 0.486,0 0.78,0.342 0.294,0.342 0.294,0.924 v 0.894 q 0,0.576 -0.3,0.918 -0.294,0.342 -0.774,0.342 z m -0.282,-0.648 q 0.288,0 0.444,-0.156 0.162,-0.156 0.162,-0.48 v -0.852 q 0,-0.324 -0.162,-0.48 -0.156,-0.156 -0.444,-0.156 -0.288,0 -0.45,0.174 -0.156,0.174 -0.156,0.492 v 0.792 q 0,0.318 0.156,0.492 0.162,0.174 0.45,0.174 z m 3.582002,0.642 q -0.636,0 -1.008,-0.354 -0.372,-0.36 -0.372,-0.966 v -0.768 q 0,-0.612 0.372,-0.966 0.372,-0.354 1.008,-0.354 0.636,0 1.008,0.354 0.372,0.354 0.372,0.966 v 0.768 q 0,0.606 -0.372,0.966 -0.372,0.354 -1.008,0.354 z m 0,-0.654 q 0.3,0 0.462,-0.162 0.168,-0.168 0.168,-0.48 v -0.816 q 0,-0.312 -0.168,-0.474 -0.162,-0.168 -0.462,-0.168 -0.3,0 -0.468,0.168 -0.162,0.162 -0.162,0.474 v 0.816 q 0,0.312 0.162,0.48 0.168,0.162 0.468,0.162 z m 3.234003,0.66 q -0.504,0 -0.798,-0.282 -0.288,-0.288 -0.288,-0.75 0,-0.48 0.33,-0.762 0.33,-0.288 0.906,-0.288 h 0.804 v -0.234 q 0,-0.498 -0.582,-0.498 -0.264,0 -0.42,0.102 -0.156,0.102 -0.174,0.288 h -0.72 q 0.024,-0.444 0.372,-0.72 0.354,-0.276 0.948,-0.276 0.63,0 0.978,0.294 0.348,0.294 0.348,0.828 v 2.238 h -0.732 v -0.618 q -0.042,0.318 -0.3,0.498 -0.258,0.18 -0.672,0.18 z m 0.24,-0.612 q 0.33,0 0.522,-0.162 0.192,-0.162 0.192,-0.432 v -0.39 h -0.768 q -0.246,0 -0.39,0.138 -0.144,0.138 -0.144,0.354 0,0.222 0.15,0.36 0.156,0.132 0.438,0.132 z m 2.508002,0.552 v -3.3 h 0.732 v 0.642 q 0.06,-0.324 0.294,-0.51 0.24,-0.192 0.618,-0.192 0.504,0 0.786,0.324 0.282,0.324 0.282,0.906 v 0.312 h -0.75 v -0.276 q 0,-0.3 -0.156,-0.456 -0.156,-0.162 -0.444,-0.162 -0.3,0 -0.456,0.18 -0.156,0.18 -0.156,0.51 v 2.022 z m 4.518002,0.06 q -0.48,0 -0.78,-0.342 -0.294,-0.342 -0.294,-0.918 v -0.894 q 0,-0.582 0.294,-0.924 0.294,-0.342 0.78,-0.342 0.342,0 0.576,0.174 0.24,0.174 0.336,0.486 l -0.024,-0.756 v -0.924 h 0.75 v 4.38 h -0.732 v -0.6 q -0.09,0.312 -0.324,0.486 -0.234,0.174 -0.582,0.174 z m 0.282,-0.648 q 0.288,0 0.444,-0.174 0.162,-0.174 0.162,-0.492 v -0.792 q 0,-0.318 -0.162,-0.492 -0.156,-0.174 -0.444,-0.174 -0.288,0 -0.45,0.156 -0.156,0.156 -0.156,0.48 v 0.852 q 0,0.324 0.156,0.48 0.162,0.156 0.45,0.156 z"
         id="path17" /><path
         style="stroke-width:0.5"
         d="m 5.4605382,32.02165 v -0.696 h 1.92 v 0.696 z m 8.1600048,1.692 q -0.438,0 -0.774,-0.162 -0.336,-0.168 -0.522,-0.456 -0.186,-0.294 -0.186,-0.678 0,-0.402 0.228,-0.702 0.234,-0.3 0.606,-0.378 v -0.012 q -0.318,-0.066 -0.516,-0.324 -0.192,-0.258 -0.192,-0.612 0,-0.348 0.168,-0.612 0.174,-0.264 0.48,-0.414 0.306,-0.15 0.708,-0.15 0.402,0 0.708,0.15 0.312,0.15 0.48,0.414 0.174,0.264 0.174,0.612 0,0.354 -0.198,0.612 -0.198,0.258 -0.516,0.324 v 0.012 q 0.372,0.078 0.6,0.378 0.234,0.3 0.234,0.702 0,0.384 -0.186,0.678 -0.186,0.288 -0.522,0.456 -0.336,0.162 -0.774,0.162 z m 0,-2.646 q 0.282,0 0.456,-0.168 0.174,-0.174 0.174,-0.444 0,-0.276 -0.174,-0.444 -0.174,-0.174 -0.456,-0.174 -0.282,0 -0.456,0.174 -0.174,0.168 -0.174,0.444 0,0.27 0.174,0.444 0.174,0.168 0.456,0.168 z m 0,2.01 q 0.33,0 0.54,-0.192 0.21,-0.192 0.21,-0.504 0,-0.318 -0.21,-0.51 -0.21,-0.198 -0.54,-0.198 -0.33,0 -0.54,0.198 -0.21,0.192 -0.21,0.51 0,0.312 0.21,0.504 0.21,0.192 0.54,0.192 z m 2.016002,0.576 1.152,-1.704 -1.074,-1.596 h 0.846 l 0.51,0.81 q 0.048,0.072 0.09,0.162 0.042,0.09 0.06,0.144 0.024,-0.054 0.06,-0.144 0.042,-0.09 0.09,-0.162 l 0.51,-0.81 h 0.852 l -1.074,1.596 1.146,1.704 h -0.852 l -0.57,-0.906 q -0.048,-0.072 -0.096,-0.162 -0.042,-0.096 -0.066,-0.15 -0.024,0.054 -0.066,0.15 -0.042,0.09 -0.09,0.162 l -0.576,0.906 z m 7.476005,0 v -4.38 h 0.75 v 2.376 h 0.528 l 0.786,-1.296 h 0.834 l -0.978,1.596 1.014,1.704 h -0.852 l -0.804,-1.368 h -0.528 v 1.368 z m 4.542002,0.06 q -0.504,0 -0.798,-0.282 -0.288,-0.288 -0.288,-0.75 0,-0.48 0.33,-0.762 0.33,-0.288 0.906,-0.288 h 0.804 v -0.234 q 0,-0.498 -0.582,-0.498 -0.264,0 -0.42,0.102 -0.156,0.102 -0.174,0.288 h -0.72 q 0.024,-0.444 0.372,-0.72 0.354,-0.276 0.948,-0.276 0.63,0 0.978,0.294 0.348,0.294 0.348,0.828 v 2.238 h -0.732 v -0.618 q -0.042,0.318 -0.3,0.498 -0.258,0.18 -0.672,0.18 z m 0.24,-0.612 q 0.33,0 0.522,-0.162 0.192,-0.162 0.192,-0.432 v -0.39 h -0.768 q -0.246,0 -0.39,0.138 -0.144,0.138 -0.144,0.354 0,0.222 0.15,0.36 0.156,0.132 0.438,0.132 z m 2.382002,0.552 v -0.678 h 1.128 v -1.944 h -1.008 v -0.678 h 1.758 v 2.622 h 1.014 v 0.678 z m 1.452,-3.852 q -0.228,0 -0.36,-0.114 -0.132,-0.12 -0.132,-0.318 0,-0.198 0.132,-0.312 0.132,-0.12 0.36,-0.12 0.228,0 0.36,0.12 0.132,0.114 0.132,0.312 0,0.198 -0.132,0.318 -0.132,0.114 -0.36,0.114 z m 4.026003,3.852 q -0.492,0 -0.792,-0.294 -0.294,-0.294 -0.294,-0.774 v -2.634 h -1.086 v -0.678 h 1.836 v 3.294 q 0,0.186 0.102,0.3 0.108,0.108 0.288,0.108 h 0.966 v 0.678 z m 1.728002,0 v -4.38 h 0.75 v 1.08 l -0.018,0.612 q 0.06,-0.312 0.294,-0.492 0.234,-0.18 0.594,-0.18 0.486,0 0.774,0.324 0.294,0.324 0.294,0.87 v 2.166 h -0.75 v -2.076 q 0,-0.306 -0.162,-0.468 -0.156,-0.168 -0.426,-0.168 -0.282,0 -0.444,0.168 -0.156,0.168 -0.156,0.48 v 2.064 z m 8.592004,0.06 q -0.426,0 -0.744,-0.156 -0.312,-0.162 -0.486,-0.45 -0.174,-0.294 -0.174,-0.69 v -0.828 q 0,-0.396 0.174,-0.684 0.174,-0.294 0.486,-0.45 0.318,-0.162 0.744,-0.162 0.618,0 0.99,0.324 0.378,0.318 0.396,0.87 h -0.738 q -0.018,-0.258 -0.198,-0.396 -0.174,-0.144 -0.45,-0.144 -0.306,0 -0.48,0.168 -0.174,0.162 -0.174,0.468 v 0.834 q 0,0.306 0.174,0.474 0.174,0.168 0.48,0.168 0.282,0 0.456,-0.138 0.174,-0.144 0.192,-0.402 h 0.738 q -0.018,0.552 -0.396,0.876 -0.372,0.318 -0.99,0.318 z m 2.208003,-0.06 v -4.38 h 0.75 v 1.08 l -0.018,0.612 q 0.06,-0.312 0.294,-0.492 0.234,-0.18 0.594,-0.18 0.486,0 0.774,0.324 0.294,0.324 0.294,0.87 v 2.166 h -0.75 v -2.076 q 0,-0.306 -0.162,-0.468 -0.156,-0.168 -0.426,-0.168 -0.282,0 -0.444,0.168 -0.156,0.168 -0.156,0.48 v 2.064 z m 4.938002,0.054 q -0.636,0 -1.008,-0.354 -0.372,-0.36 -0.372,-0.966 v -0.768 q 0,-0.612 0.372,-0.966 0.372,-0.354 1.008,-0.354 0.636,0 1.008,0.354 0.372,0.354 0.372,0.966 v 0.768 q 0,0.606 -0.372,0.966 -0.372,0.354 -1.008,0.354 z m 0,-0.654 q 0.3,0 0.462,-0.162 0.168,-0.168 0.168,-0.48 v -0.816 q 0,-0.312 -0.168,-0.474 -0.162,-0.168 -0.462,-0.168 -0.3,0 -0.468,0.168 -0.162,0.162 -0.162,0.474 v 0.816 q 0,0.312 0.162,0.48 0.168,0.162 0.468,0.162 z m 3.654002,0.66 q -0.426,0 -0.744,-0.156 -0.312,-0.162 -0.486,-0.45 -0.174,-0.294 -0.174,-0.69 v -0.828 q 0,-0.396 0.174,-0.684 0.174,-0.294 0.486,-0.45 0.318,-0.162 0.744,-0.162 0.618,0 0.99,0.324 0.378,0.318 0.396,0.87 h -0.738 q -0.018,-0.258 -0.198,-0.396 -0.174,-0.144 -0.45,-0.144 -0.306,0 -0.48,0.168 -0.174,0.162 -0.174,0.468 v 0.834 q 0,0.306 0.174,0.474 0.174,0.168 0.48,0.168 0.282,0 0.456,-0.138 0.174,-0.144 0.192,-0.402 h 0.738 q -0.018,0.552 -0.396,0.876 -0.372,0.318 -0.99,0.318 z"
         id="path18" /><path
         style="stroke-width:0.5"
         d="m 5.4605382,39.52165 v -0.696 h 1.92 v 0.696 z m 7.4880048,0.27 -0.012,-1.14 h 0.474 q 0.3,0 0.48,-0.162 0.18,-0.162 0.18,-0.426 0,-0.27 -0.18,-0.426 -0.18,-0.162 -0.486,-0.162 h -0.894 v -0.702 h 0.858 q 0.444,0 0.768,0.162 0.324,0.156 0.504,0.444 0.18,0.288 0.18,0.684 0,0.366 -0.156,0.648 -0.15,0.276 -0.42,0.438 -0.27,0.156 -0.63,0.162 v 0.48 z m 0.246,1.392 q -0.186,0 -0.3,-0.108 -0.114,-0.114 -0.114,-0.288 0,-0.174 0.114,-0.282 0.114,-0.114 0.3,-0.114 h 0.18 q 0.186,0 0.294,0.114 0.114,0.108 0.114,0.282 0,0.174 -0.114,0.288 -0.114,0.108 -0.3,0.108 z m 2.442002,-0.03 1.152,-1.704 -1.074,-1.596 h 0.846 l 0.51,0.81 q 0.048,0.072 0.09,0.162 0.042,0.09 0.06,0.144 0.024,-0.054 0.06,-0.144 0.042,-0.09 0.09,-0.162 l 0.51,-0.81 h 0.852 l -1.074,1.596 1.146,1.704 h -0.852 l -0.57,-0.906 q -0.048,-0.072 -0.096,-0.162 -0.042,-0.096 -0.066,-0.15 -0.024,0.054 -0.066,0.15 -0.042,0.09 -0.09,0.162 l -0.576,0.906 z m 7.266005,0 v -3.3 h 0.624 v 0.48 h 0.018 q 0.018,-0.24 0.168,-0.39 0.15,-0.15 0.378,-0.15 0.222,0 0.378,0.144 0.156,0.138 0.21,0.378 0.024,-0.24 0.174,-0.378 0.156,-0.144 0.39,-0.144 0.3,0 0.498,0.24 0.198,0.234 0.198,0.606 v 2.514 h -0.66 v -2.46 q 0,-0.162 -0.078,-0.252 -0.072,-0.096 -0.21,-0.096 -0.27,0 -0.27,0.348 v 2.46 h -0.6 v -2.46 q 0,-0.162 -0.072,-0.252 -0.066,-0.096 -0.198,-0.096 -0.288,0 -0.288,0.348 v 2.46 z m 4.752002,0.06 q -0.504,0 -0.798,-0.282 -0.288,-0.288 -0.288,-0.75 0,-0.48 0.33,-0.762 0.33,-0.288 0.906,-0.288 h 0.804 v -0.234 q 0,-0.498 -0.582,-0.498 -0.264,0 -0.42,0.102 -0.156,0.102 -0.174,0.288 h -0.72 q 0.024,-0.444 0.372,-0.72 0.354,-0.276 0.948,-0.276 0.63,0 0.978,0.294 0.348,0.294 0.348,0.828 v 2.238 h -0.732 v -0.618 q -0.042,0.318 -0.3,0.498 -0.258,0.18 -0.672,0.18 z m 0.24,-0.612 q 0.33,0 0.522,-0.162 0.192,-0.162 0.192,-0.432 v -0.39 h -0.768 q -0.246,0 -0.39,0.138 -0.144,0.138 -0.144,0.354 0,0.222 0.15,0.36 0.156,0.132 0.438,0.132 z m 2.838002,1.632 v -0.624 h 0.93 q 0.264,0 0.408,-0.144 0.144,-0.138 0.144,-0.378 v -0.198 l 0.012,-0.516 q -0.102,0.276 -0.33,0.432 -0.222,0.15 -0.546,0.15 -0.504,0 -0.804,-0.336 -0.294,-0.342 -0.294,-0.924 v -0.642 q 0,-0.576 0.294,-0.918 0.3,-0.342 0.804,-0.342 0.324,0 0.546,0.156 0.228,0.15 0.33,0.432 v -0.528 h 0.732 v 3.252 q 0,0.522 -0.348,0.822 -0.342,0.306 -0.936,0.306 z m 0.87,-1.92 q 0.288,0 0.444,-0.168 0.162,-0.174 0.162,-0.48 v -0.576 q 0,-0.306 -0.162,-0.474 -0.156,-0.174 -0.444,-0.174 -0.288,0 -0.444,0.168 -0.156,0.162 -0.156,0.456 v 0.624 q 0,0.294 0.156,0.462 0.156,0.162 0.444,0.162 z m 2.280003,0.84 v -3.3 h 0.732 v 0.618 q 0.06,-0.312 0.294,-0.492 0.234,-0.186 0.594,-0.186 0.486,0 0.774,0.324 0.294,0.324 0.294,0.87 v 2.166 h -0.75 v -2.076 q 0,-0.306 -0.162,-0.468 -0.156,-0.168 -0.426,-0.168 -0.282,0 -0.444,0.168 -0.156,0.168 -0.156,0.48 v 2.064 z m 4.944002,0.06 q -0.42,0 -0.732,-0.162 -0.312,-0.162 -0.486,-0.456 -0.168,-0.3 -0.168,-0.702 v -0.78 q 0,-0.402 0.168,-0.696 0.174,-0.3 0.486,-0.462 0.312,-0.162 0.732,-0.162 0.414,0 0.72,0.162 0.312,0.162 0.48,0.456 0.174,0.288 0.174,0.678 v 0.6 h -2.04 v 0.228 q 0,0.336 0.174,0.51 0.174,0.168 0.492,0.168 0.234,0 0.396,-0.078 0.168,-0.084 0.198,-0.24 h 0.744 q -0.078,0.426 -0.444,0.684 -0.366,0.252 -0.894,0.252 z m -0.666,-2.124 v 0.114 l 1.32,-0.006 v -0.114 q 0,-0.342 -0.168,-0.528 -0.168,-0.186 -0.486,-0.186 -0.33,0 -0.498,0.192 -0.168,0.186 -0.168,0.528 z m 4.590002,2.064 q -0.462,0 -0.738,-0.264 -0.27,-0.27 -0.27,-0.726 v -1.632 h -0.912 v -0.678 h 0.912 v -0.93 h 0.756 v 0.93 h 1.314 v 0.678 h -1.314 v 1.614 q 0,0.144 0.078,0.24 0.084,0.09 0.228,0.09 h 0.978 v 0.678 z m 3.132002,0.054 q -0.588,0 -0.93,-0.264 -0.342,-0.27 -0.342,-0.726 h 0.738 q 0,0.192 0.138,0.294 0.144,0.102 0.396,0.102 h 0.264 q 0.27,0 0.414,-0.102 0.15,-0.102 0.15,-0.294 0,-0.18 -0.102,-0.264 -0.102,-0.09 -0.312,-0.12 l -0.822,-0.108 q -0.396,-0.054 -0.612,-0.306 -0.21,-0.252 -0.21,-0.654 0,-0.468 0.312,-0.714 0.312,-0.252 0.9,-0.252 h 0.276 q 0.552,0 0.888,0.252 0.336,0.252 0.348,0.672 h -0.744 q -0.006,-0.156 -0.138,-0.246 -0.132,-0.096 -0.354,-0.096 h -0.276 q -0.24,0 -0.366,0.102 -0.126,0.096 -0.126,0.264 0,0.15 0.09,0.222 0.096,0.072 0.276,0.09 l 0.774,0.108 q 0.456,0.054 0.684,0.324 0.234,0.264 0.234,0.714 0,0.48 -0.33,0.744 -0.324,0.258 -0.954,0.258 z"
         id="path19" /></g><text
       xml:space="preserve"
       style="font-weight:bold;font-size:10px;font-family:'JetBrains Mono';-inkscape-font-specification:'JetBrains Mono Bold';text-align:start;writing-mode:lr-tb;direction:ltr;text-anchor:start;fill:#181825;stroke:none;stroke-width:0.499999;stroke-linecap:round;stroke-linejoin:round"
       x="4.1751647"
       y="110.61993"
       id="text1"><tspan
         sodipodi:role="line"
         id="tspan1"
         style="font-size:10px;fill:#181825;stroke:none;stroke-width:0.5"
         x="4.1751647"
         y="110.61993">Early Sketch</tspan></text><text
       xml:space="preserve"
       style="font-weight:bold;font-size:6px;font-family:'JetBrains Mono';-inkscape-font-specification:'JetBrains Mono Bold';text-align:start;writing-mode:lr-tb;direction:ltr;text-anchor:start;fill:#181825;stroke:none;stroke-width:0.499999;stroke-linecap:round;stroke-linejoin:round"
       x="2.9504738"
       y="123.04803"
       id="text7"><tspan
         sodipodi:role="line"
         id="tspan2"
         style="font-size:6px;fill:#181825;stroke-width:0.5"
         x="2.9504738"
         y="123.04803">Parts:</tspan><tspan
         sodipodi:role="line"
         style="font-size:6px;fill:#181825;stroke-width:0.5"
         x="2.9504738"
         y="130.54803"
         id="tspan4">- 1x battery</tspan><tspan
         sodipodi:role="line"
         style="font-size:6px;fill:#181825;stroke-width:0.5"
         x="2.9504738"
         y="138.04803"
         id="tspan5">- 1x esp32c3 board</tspan><tspan
         sodipodi:role="line"
         style="font-size:6px;fill:#181825;stroke-width:0.5"
         x="2.9504738"
         y="145.54802"
         id="tspan6">- 8x kailh choc</tspan><tspan
         sodipodi:role="line"
         style="font-size:6px;fill:#181825;stroke-width:0.5"
         x="2.9504738"
         y="153.04802"
         id="tspan7">- ?x magnets</tspan></text></g></svg>
