<?xml version="1.0" encoding="UTF-8" standalone="no"?>
<!-- Created with Inkscape (http://www.inkscape.org/) -->

<svg
   width="210mm"
   height="90mm"
   viewBox="0 0 210 90"
   version="1.1"
   id="svg1"
   xml:space="preserve"
   inkscape:version="1.4.2 (ebf0e940d0, 2025-05-08)"
   sodipodi:docname="pocket-kb-sections.svg"
   xmlns:inkscape="http://www.inkscape.org/namespaces/inkscape"
   xmlns:sodipodi="http://sodipodi.sourceforge.net/DTD/sodipodi-0.dtd"
   xmlns="http://www.w3.org/2000/svg"
   xmlns:svg="http://www.w3.org/2000/svg"><sodipodi:namedview
     id="namedview1"
     pagecolor="#ffffff"
     bordercolor="#000000"
     borderopacity="0.25"
     inkscape:showpageshadow="2"
     inkscape:pageopacity="0.0"
     inkscape:pagecheckerboard="0"
     inkscape:deskcolor="#d1d1d1"
     inkscape:document-units="mm"
     inkscape:zoom="1.8924306"
     inkscape:cx="358.79784"
     inkscape:cy="87.189461"
     inkscape:window-width="3840"
     inkscape:window-height="2160"
     inkscape:window-x="0"
     inkscape:window-y="0"
     inkscape:window-maximized="0"
     inkscape:current-layer="layer1" /><defs
     id="defs1" /><g
     inkscape:label="Layer 1"
     inkscape:groupmode="layer"
     id="layer1"><rect
       style="fill:#cdd6f4;stroke-width:0.499999;stroke-linecap:round;stroke-linejoin:round"
       id="rect1"
       width="80.220001"
       height="90"
       x="0"
       y="0" /><rect
       style="fill:#181825;stroke:none;stroke-width:0.499999;stroke-linecap:round;stroke-linejoin:round"
       id="rect21"
       width="129.78"
       height="90"
       x="80.220001"
       y="0" /><path
       style="font-weight:bold;font-size:10px;font-family:'JetBrains Mono';-inkscape-font-specification:'JetBrains Mono Bold';fill:#181825;stroke-width:0.5;stroke-linecap:round;stroke-linejoin:round"
       d="M 4.4232679,11.982659 V 4.6826593 h 2.43 q 0.73,0 1.27,0.28 0.55,0.28 0.85,0.79 0.3,0.5 0.3,1.18 0,0.68 -0.3,1.19 -0.3,0.5 -0.85,0.78 -0.54,0.28 -1.27,0.28 h -1.18 v 2.7999997 z m 1.25,-3.8999997 h 1.18 q 0.53,0 0.84,-0.32 0.31,-0.32 0.31,-0.83 0,-0.51 -0.31,-0.83 -0.31,-0.32 -0.84,-0.32 h -1.18 z m 6.9800041,3.9899997 q -1.06,0 -1.68,-0.59 -0.62,-0.6 -0.62,-1.6099997 v -1.28 q 0,-1.02 0.62,-1.61 0.62,-0.59 1.68,-0.59 1.06,0 1.68,0.59 0.62,0.59 0.62,1.61 v 1.28 q 0,1.0099997 -0.62,1.6099997 -0.62,0.59 -1.68,0.59 z m 0,-1.09 q 0.5,0 0.77,-0.27 0.28,-0.28 0.28,-0.7999997 v -1.36 q 0,-0.52 -0.28,-0.79 -0.27,-0.28 -0.77,-0.28 -0.5,0 -0.78,0.28 -0.27,0.27 -0.27,0.79 v 1.36 q 0,0.5199997 0.27,0.7999997 0.28,0.27 0.78,0.27 z m 6.090003,1.1 q -0.71,0 -1.24,-0.26 -0.52,-0.27 -0.81,-0.75 -0.29,-0.49 -0.29,-1.1499997 v -1.38 q 0,-0.66 0.29,-1.14 0.29,-0.49 0.81,-0.75 0.53,-0.27 1.24,-0.27 1.03,0 1.65,0.54 0.63,0.53 0.66,1.45 h -1.23 q -0.03,-0.43 -0.33,-0.66 -0.29,-0.24 -0.75,-0.24 -0.51,0 -0.8,0.28 -0.29,0.27 -0.29,0.78 v 1.39 q 0,0.5099997 0.29,0.7899997 0.29,0.28 0.8,0.28 0.47,0 0.76,-0.23 0.29,-0.24 0.32,-0.67 h 1.23 q -0.03,0.92 -0.66,1.46 -0.62,0.53 -1.65,0.53 z m 3.730004,-0.1 V 4.6826593 h 1.25 v 3.96 h 0.88 l 1.31,-2.16 h 1.39 l -1.63,2.66 1.69,2.8399997 h -1.42 l -1.34,-2.2799997 h -0.88 v 2.2799997 z m 8.190004,0.1 q -0.7,0 -1.22,-0.27 -0.52,-0.27 -0.81,-0.76 -0.28,-0.5 -0.28,-1.1699997 v -1.3 q 0,-0.67 0.28,-1.16 0.29,-0.5 0.81,-0.77 0.52,-0.27 1.22,-0.27 0.69,0 1.2,0.27 0.52,0.27 0.8,0.76 0.29,0.48 0.29,1.13 v 1 h -3.4 v 0.38 q 0,0.5599997 0.29,0.8499997 0.29,0.28 0.82,0.28 0.39,0 0.66,-0.13 0.28,-0.14 0.33,-0.4 h 1.24 q -0.13,0.71 -0.74,1.14 -0.61,0.42 -1.49,0.42 z m -1.11,-3.5399997 v 0.19 l 2.2,-0.01 v -0.19 q 0,-0.57 -0.28,-0.88 -0.28,-0.31 -0.81,-0.31 -0.55,0 -0.83,0.32 -0.28,0.31 -0.28,0.88 z m 7.650004,3.4399997 q -0.77,0 -1.23,-0.44 -0.45,-0.45 -0.45,-1.21 V 7.6126593 h -1.52 v -1.13 h 1.52 v -1.55 h 1.26 v 1.55 h 2.19 v 1.13 h -2.19 v 2.6899997 q 0,0.24 0.13,0.4 0.14,0.15 0.38,0.15 h 1.63 v 1.13 z m 9.210008,0 V 4.6826593 h 1.25 v 2.98 h 0.86 l 1.39,-2.98 h 1.35 l -1.64,3.48 1.72,3.8199997 h -1.39 l -1.44,-3.2299997 h -0.85 v 3.2299997 z m 6.010003,0 V 4.6826593 h 2.24 q 1.05,0 1.67,0.51 0.63,0.51 0.63,1.37 0,0.6 -0.35,1.03 -0.34,0.43 -0.89,0.52 v 0.02 q 0.41,0.05 0.73,0.3 0.32,0.24 0.5,0.63 0.18,0.38 0.18,0.84 0,0.6299997 -0.29,1.0999997 -0.29,0.47 -0.82,0.73 -0.53,0.25 -1.25,0.25 z m 1.22,-4.2899997 h 1 q 0.49,0 0.78,-0.26 0.29,-0.27 0.29,-0.73 0,-0.45 -0.29,-0.71 -0.28,-0.27 -0.78,-0.27 h -1 z m 0,3.2499997 h 1.06 q 0.55,0 0.86,-0.29 0.32,-0.3 0.32,-0.8099997 0,-0.51 -0.32,-0.82 -0.31,-0.32 -0.86,-0.32 h -1.06 z"
       id="text14"
       aria-label="Pocket KB" /><g
       id="g67"
       transform="matrix(0.64305074,0,0,0.64305074,52.836144,15.232084)"
       style="stroke-width:1.55509"><path
         style="fill:none;stroke:#a6e3a1;stroke-width:1.55509;stroke-linecap:round;stroke-linejoin:round"
         d="m 83.764212,22.545881 29.069578,-10.12477 c 0,0 1.82663,-0.991602 5.42771,-0.313138 3.60108,0.678464 82.72042,16.387517 82.72042,16.387517 0,0 5.32333,1.14817 4.22735,3.026992 -1.09598,1.878824 -13.98679,20.197352 -13.98679,20.197352 0,0 -1.72226,4.69706 -12.16017,1.722255 -10.43791,-2.974803 -95.872183,-28.33892 -95.872183,-28.33892 0,0 -3.862025,-0.991601 0.574085,-2.557288 z"
         id="path1" /><path
         style="fill:none;stroke:#74c7ec;stroke-width:1.55509;stroke-linecap:round;stroke-linejoin:round"
         d="m 82.8248,32.566274 c 0,0 0,0.521895 1.461307,1.043789 1.461307,0.521896 93.628033,31.209347 93.628033,31.209347 0,0 8.14157,3.496699 11.58608,-1.774444 3.44451,-5.271145 14.4565,-23.172158 14.4565,-23.172158"
         id="path2" /><path
         style="fill:none;stroke:#cba6f7;stroke-width:1.55509;stroke-linecap:round;stroke-linejoin:round"
         d="m 88.635606,44.015263 0.29537,2.589998 30.426504,11.899214 c 0,0 3.52881,0.838698 5.57424,-0.859295"
         id="path4" /><path
         style="fill:none;stroke:#fab387;stroke-width:1.55509;stroke-linecap:round;stroke-linejoin:round"
         d="m 130.25421,59.647232 0.0631,2.092994 c 0,0 0.41752,1.043792 2.40072,1.774444 1.9832,0.730655 43.00418,16.596275 43.00418,16.596275 0,0 6.52691,2.201921 7.28205,-1.821656"
         id="path5" /><path
         style="fill:none;stroke:#74c7ec;stroke-width:1.55509;stroke-linecap:round;stroke-linejoin:round"
         d="m 202.0779,50.310716 1.87882,-10.437908"
         id="path6" /><path
         style="fill:none;stroke:#a6e3a1;stroke-width:1.55509;stroke-linecap:round;stroke-linejoin:round"
         d="m 203.95672,39.872808 1.25255,-8.350326"
         id="path7" /><path
         style="fill:none;stroke:#a6e3a1;stroke-width:1.55509;stroke-linecap:round;stroke-linejoin:round"
         d="m 81.66759,23.826913 1.157208,8.739361"
         id="path8" /><path
         style="fill:none;stroke:#74c7ec;stroke-width:1.55509;stroke-linecap:round;stroke-linejoin:round"
         d="M 84.442675,42.06477 82.824798,32.566274"
         id="path9" /><path
         style="fill:none;stroke:#a6e3a1;stroke-width:1.55509;stroke-linecap:round;stroke-linejoin:round"
         d="M 93.314897,24.737842 173.32146,47.179346 190.5962,29.017386 120.03594,14.195555 Z"
         id="path10" /><path
         style="fill:none;stroke:#a6e3a1;stroke-width:1.55509;stroke-linecap:round;stroke-linejoin:round"
         d="m 108.77642,18.637785 74.46863,18.108302"
         id="path11" /><path
         style="fill:none;stroke:#a6e3a1;stroke-width:1.55509;stroke-linecap:round;stroke-linejoin:round"
         d="M 148.65854,40.2615 169.37326,24.559313"
         id="path12" /><path
         style="fill:none;stroke:#a6e3a1;stroke-width:1.55509;stroke-linecap:round;stroke-linejoin:round"
         d="m 127.29745,34.269804 24.02833,-13.50153"
         id="path13" /><path
         style="fill:none;stroke:#a6e3a1;stroke-width:1.55509;stroke-linecap:round;stroke-linejoin:round"
         d="M 108.74493,29.065902 134.41448,17.215899"
         id="path14" /><path
         style="fill:#f38ba8;stroke:#f38ba8;stroke-width:1.55509;stroke-linecap:round;stroke-linejoin:round;stroke-opacity:1"
         d="m 175.87475,72.514967 1.18633,-15.521269"
         id="path23"
         sodipodi:nodetypes="cc" /><path
         style="fill:#f38ba8;stroke:#f38ba8;stroke-width:1.55509;stroke-linecap:round;stroke-linejoin:round;stroke-opacity:1"
         d="m 139.74084,59.860685 -0.20621,-6.410746"
         id="path24"
         sodipodi:nodetypes="cc" /><path
         style="fill:#f38ba8;stroke:#f38ba8;stroke-width:1.55509;stroke-linecap:round;stroke-linejoin:round;stroke-opacity:1"
         d="m 121.84689,53.533545 -0.23763,-5.084169"
         id="path25"
         sodipodi:nodetypes="cc" /><path
         style="fill:#f38ba8;stroke:#f38ba8;stroke-width:1.55509;stroke-linecap:round;stroke-linejoin:round;stroke-opacity:1"
         d="M 97.329222,44.438278 95.899242,31.631943"
         id="path26"
         sodipodi:nodetypes="cc" /><path
         style="fill:#f38ba8;stroke:#f38ba8;stroke-width:1.55509;stroke-linecap:round;stroke-linejoin:round;stroke-opacity:1"
         d="m 189.56707,54.868174 1.53235,-13.79119"
         id="path27"
         sodipodi:nodetypes="cc" /><path
         style="fill:#f38ba8;stroke:#f38ba8;stroke-width:1.55509;stroke-linecap:round;stroke-linejoin:round;stroke-opacity:1"
         d="m 157.48649,45.179741 0.0989,-5.585679"
         id="path28"
         sodipodi:nodetypes="cc" /><path
         style="fill:#f38ba8;stroke:#f38ba8;stroke-width:1.55509;stroke-linecap:round;stroke-linejoin:round;stroke-opacity:1"
         d="m 140.82832,40.08837 -0.27187,-5.363241"
         id="path29"
         sodipodi:nodetypes="cc" /><path
         style="fill:#f38ba8;stroke:#f38ba8;stroke-width:1.55509;stroke-linecap:round;stroke-linejoin:round;stroke-opacity:1"
         d="M 117.3367,33.100346 116.98718,21.74067"
         id="path30" /><path
         style="fill:none;stroke:#74c7ec;stroke-width:1.55509;stroke-linecap:round;stroke-linejoin:round"
         d="m 84.442677,42.06477 c 0,0 -0.10438,0.417515 1.461307,0.939411 1.565685,0.521896 92.479866,34.758236 92.479866,34.758236 0,0 6.0018,2.191959 8.40251,-1.826636 2.40072,-4.018595 15.29154,-25.625065 15.29154,-25.625065"
         id="path3" /></g><g
       id="text67"
       style="font-weight:bold;font-size:6.00001px;font-family:'JetBrains Mono';-inkscape-font-specification:'JetBrains Mono Bold';fill:#181825;stroke-linecap:round;stroke-linejoin:round"
       aria-label="Fig. 2&#10;Sections"><path
         d="m 4.5612696,77.400795 v -4.380007 h 2.7240045 v 0.696001 H 5.2992708 v 1.170002 h 1.8300031 v 0.696001 H 5.3112708 v 1.818003 z m 3.5760082,0 V 76.722794 H 9.2652797 V 74.778791 H 8.257278 v -0.678002 h 1.758003 v 2.622005 h 1.014002 v 0.678001 z m 1.4520024,-3.852006 q -0.2280004,0 -0.3600006,-0.114001 -0.1320002,-0.12 -0.1320002,-0.318 0,-0.198 0.1320002,-0.312001 0.1320002,-0.12 0.3600006,-0.12 0.2280004,0 0.3600006,0.12 0.1320002,0.114001 0.1320002,0.312001 0,0.198 -0.1320002,0.318 -0.1320002,0.114001 -0.3600006,0.114001 z m 2.6040068,4.932008 v -0.624001 h 0.930001 q 0.264001,0 0.408001,-0.144 0.144,-0.138001 0.144,-0.378001 v -0.198 l 0.012,-0.516001 q -0.102,0.276 -0.33,0.432 -0.222001,0.150001 -0.546001,0.150001 -0.504001,0 -0.804002,-0.336001 -0.294,-0.342 -0.294,-0.924001 v -0.642002 q 0,-0.576 0.294,-0.918001 0.300001,-0.342001 0.804002,-0.342001 0.324,0 0.546001,0.156001 0.228,0.15 0.33,0.432 v -0.528001 h 0.732002 v 3.252006 q 0,0.522001 -0.348001,0.822001 -0.342001,0.306001 -0.936002,0.306001 z m 0.870001,-1.920003 q 0.288001,0 0.444001,-0.168001 0.162,-0.174 0.162,-0.480001 v -0.576 q 0,-0.306001 -0.162,-0.474001 -0.156,-0.174001 -0.444001,-0.174001 -0.288,0 -0.444,0.168001 -0.156001,0.162 -0.156001,0.456 v 0.624002 q 0,0.294 0.156001,0.462 0.156,0.162001 0.444,0.162001 z m 3.618009,0.900001 q -0.252001,0 -0.408001,-0.15 -0.15,-0.156 -0.15,-0.402001 0,-0.246 0.15,-0.402001 0.156,-0.156 0.408001,-0.156 0.252,0 0.402,0.156 0.156001,0.156001 0.156001,0.402001 0,0.246001 -0.156001,0.402001 -0.15,0.15 -0.402,0.15 z m 5.844014,-0.06 v -0.678001 l 1.578003,-1.614003 q 0.384001,-0.402001 0.384001,-0.816001 0,-0.294001 -0.174001,-0.474001 -0.168,-0.186 -0.456,-0.186 -0.294001,0 -0.474001,0.192 -0.174,0.186 -0.174,0.498001 h -0.750002 q 0,-0.408001 0.180001,-0.714001 0.18,-0.306001 0.498001,-0.474001 0.318,-0.174 0.738001,-0.174 0.414,0 0.726001,0.162 0.312,0.162 0.480001,0.456001 0.174,0.288 0.174,0.678001 0,0.336 -0.162,0.672001 -0.156,0.336 -0.522001,0.696001 l -1.104002,1.098002 h 1.842003 v 0.678001 z"
         id="path15" /><path
         d="m 5.8992718,84.960808 q -0.4440007,0 -0.7800013,-0.156001 -0.3300005,-0.156 -0.5160008,-0.444 -0.1800003,-0.294001 -0.1800003,-0.696002 h 0.7380012 q 0,0.294001 0.1980003,0.468001 0.2040004,0.174001 0.5400009,0.174001 0.3240006,0 0.5100009,-0.168001 0.1920003,-0.174 0.1920003,-0.462001 0,-0.216 -0.1260002,-0.378 -0.1200002,-0.168 -0.3480006,-0.228001 l -0.588001,-0.15 q -0.4740008,-0.12 -0.7500012,-0.450001 -0.2760005,-0.33 -0.2760005,-0.786001 0,-0.558001 0.3660006,-0.888001 0.3660006,-0.336001 0.9780017,-0.336001 0.4140006,0 0.7200012,0.15 0.3120005,0.150001 0.4800008,0.426001 0.1680002,0.270001 0.1680002,0.636001 H 6.4932728 q 0,-0.252 -0.1740003,-0.408001 -0.1740003,-0.156 -0.4620007,-0.156 -0.2820005,0 -0.4500008,0.156 -0.1620003,0.150001 -0.1620003,0.396001 0,0.204 0.1140002,0.336001 0.1200002,0.132 0.3300006,0.192 l 0.606001,0.15 q 0.4860008,0.12 0.7620013,0.480001 0.2820004,0.360001 0.2820004,0.858001 0,0.390001 -0.1800003,0.678002 -0.1740003,0.288 -0.4980008,0.45 -0.3240005,0.156001 -0.7620013,0.156001 z m 3.5880083,0 q -0.4200008,0 -0.7320013,-0.162001 -0.3120005,-0.162 -0.4860008,-0.456 -0.1680003,-0.300001 -0.1680003,-0.702002 v -0.780001 q 0,-0.402001 0.1680003,-0.696001 0.1740003,-0.300001 0.4860008,-0.462001 0.3120005,-0.162 0.7320013,-0.162 0.4140006,0 0.7200009,0.162 0.312001,0.162 0.480001,0.456001 0.174,0.288 0.174,0.678001 v 0.600001 H 8.8212789 v 0.228 q 0,0.336001 0.1740003,0.510001 0.1740003,0.168001 0.4920009,0.168001 0.2340003,0 0.3960006,-0.078 0.1680003,-0.084 0.1980003,-0.24 h 0.744001 q -0.078,0.426001 -0.444,0.684001 -0.366001,0.252001 -0.8940019,0.252001 z M 8.8212789,82.836804 v 0.114 l 1.3200021,-0.006 v -0.114 q 0,-0.342001 -0.1680001,-0.528001 -0.1680003,-0.186 -0.4860008,-0.186 -0.3300006,0 -0.4980009,0.192 -0.1680003,0.186 -0.1680003,0.528001 z m 4.3140091,2.124004 q -0.426,0 -0.744001,-0.156001 -0.312,-0.162 -0.486001,-0.45 -0.174,-0.294001 -0.174,-0.690002 v -0.828001 q 0,-0.396001 0.174,-0.684001 0.174001,-0.294001 0.486001,-0.450001 0.318001,-0.162 0.744001,-0.162 0.618001,0 0.990002,0.324 0.378001,0.318001 0.396001,0.870002 h -0.738002 q -0.018,-0.258001 -0.198,-0.396001 -0.174,-0.144 -0.450001,-0.144 -0.306,0 -0.48,0.168 -0.174001,0.162001 -0.174001,0.468001 v 0.834001 q 0,0.306001 0.174001,0.474001 0.174,0.168001 0.48,0.168001 0.282001,0 0.456001,-0.138001 0.174,-0.144 0.192,-0.402 h 0.738002 q -0.018,0.552001 -0.396001,0.876001 -0.372001,0.318001 -0.990002,0.318001 z m 3.876009,-0.06 q -0.462,0 -0.738001,-0.264 -0.27,-0.27 -0.27,-0.726001 v -1.632003 h -0.912002 v -0.678001 h 0.912002 V 80.6708 h 0.756001 v 0.930002 h 1.314002 v 0.678001 h -1.314002 v 1.614003 q 0,0.144 0.078,0.24 0.084,0.09 0.228,0.09 h 0.978002 v 0.678001 z m 1.926006,0 v -0.678001 h 1.128001 v -1.944003 h -1.008001 v -0.678001 h 1.758003 v 2.622004 h 1.014001 v 0.678001 z m 1.452002,-3.852006 q -0.228,0 -0.360001,-0.114 -0.132,-0.12 -0.132,-0.318001 0,-0.198 0.132,-0.312 0.132001,-0.12 0.360001,-0.12 0.228,0 0.360001,0.12 0.132,0.114 0.132,0.312 0,0.198001 -0.132,0.318001 -0.132001,0.114 -0.360001,0.114 z m 3.492009,3.906007 q -0.636001,0 -1.008002,-0.354001 -0.372001,-0.360001 -0.372001,-0.966002 v -0.768001 q 0,-0.612001 0.372001,-0.966002 0.372001,-0.354 1.008002,-0.354 0.636001,0 1.008001,0.354 0.372001,0.354001 0.372001,0.966002 v 0.768001 q 0,0.606001 -0.372001,0.966002 -0.372,0.354001 -1.008001,0.354001 z m 0,-0.654002 q 0.3,0 0.462001,-0.162 0.168,-0.168 0.168,-0.480001 v -0.816001 q 0,-0.312 -0.168,-0.474001 -0.162001,-0.168 -0.462001,-0.168 -0.300001,0 -0.468001,0.168 -0.162,0.162001 -0.162,0.474001 v 0.816001 q 0,0.312001 0.162,0.480001 0.168,0.162 0.468001,0.162 z m 2.262006,0.600001 v -3.300005 h 0.732001 v 0.618001 q 0.06,-0.312 0.294,-0.492001 0.234001,-0.186 0.594001,-0.186 0.486001,0 0.774002,0.324 0.294,0.324001 0.294,0.870002 v 2.166003 h -0.750001 v -2.076003 q 0,-0.306 -0.162001,-0.468001 -0.156,-0.168 -0.426,-0.168 -0.282001,0 -0.444001,0.168 -0.156,0.168001 -0.156,0.480001 v 2.064003 z m 4.80001,0.054 q -0.588001,0 -0.930002,-0.264001 -0.342001,-0.27 -0.342001,-0.726001 h 0.738002 q 0,0.192 0.138,0.294 0.144,0.102001 0.396001,0.102001 h 0.264 q 0.27,0 0.414001,-0.102001 0.15,-0.102 0.15,-0.294 0,-0.18 -0.102,-0.264001 -0.102,-0.09 -0.312001,-0.12 l -0.822001,-0.108 q -0.396001,-0.054 -0.612001,-0.306 -0.210001,-0.252001 -0.210001,-0.654001 0,-0.468001 0.312001,-0.714002 0.312001,-0.252 0.900002,-0.252 h 0.276 q 0.552001,0 0.888001,0.252 0.336001,0.252001 0.348001,0.672001 h -0.744001 q -0.006,-0.156 -0.138,-0.246 -0.132001,-0.096 -0.354001,-0.096 h -0.276 q -0.240001,0 -0.366001,0.102 -0.126,0.096 -0.126,0.264 0,0.150001 0.09,0.222001 0.096,0.072 0.276,0.09 l 0.774002,0.108 q 0.456,0.054 0.684001,0.324001 0.234,0.264 0.234,0.714001 0,0.480001 -0.33,0.744001 -0.324001,0.258001 -0.954002,0.258001 z"
         id="path16" /></g><text
       xml:space="preserve"
       style="font-weight:bold;font-size:10px;font-family:'JetBrains Mono';-inkscape-font-specification:'JetBrains Mono Bold';text-align:start;writing-mode:lr-tb;direction:ltr;text-anchor:start;fill:#181825;stroke:none;stroke-width:0.499999;stroke-linecap:round;stroke-linejoin:round"
       x="7.7777047"
       y="114.60422"
       id="text1"><tspan
         sodipodi:role="line"
         id="tspan1"
         style="font-size:10px;fill:#181825;stroke:none;stroke-width:0.5"
         x="7.7777047"
         y="114.60422">Pocket KB</tspan></text><text
       xml:space="preserve"
       style="font-weight:bold;font-size:6.00001px;font-family:'JetBrains Mono';-inkscape-font-specification:'JetBrains Mono Bold';text-align:start;writing-mode:lr-tb;direction:ltr;text-anchor:start;fill:#181825;stroke:none;stroke-width:1;stroke-linecap:round;stroke-linejoin:round;stroke-opacity:1"
       x="21.907221"
       y="129.83006"
       id="text3"><tspan
         sodipodi:role="line"
         id="tspan2"
         style="fill:#181825;stroke:none;stroke-width:1"
         x="21.907221"
         y="129.83006">Fig. 2</tspan><tspan
         sodipodi:role="line"
         style="fill:#181825;stroke:none;stroke-width:1"
         x="21.907221"
         y="137.33008"
         id="tspan3">Sections</tspan></text></g></svg>
