<?xml version="1.0" encoding="UTF-8" standalone="no"?>
<!-- Created with Inkscape (http://www.inkscape.org/) -->

<svg
   width="210mm"
   height="90mm"
   viewBox="0 0 210 90"
   version="1.1"
   id="svg1"
   xml:space="preserve"
   inkscape:version="1.4.2 (ebf0e940d0, 2025-05-08)"
   sodipodi:docname="pocket-kb-sections.svg"
   xmlns:inkscape="http://www.inkscape.org/namespaces/inkscape"
   xmlns:sodipodi="http://sodipodi.sourceforge.net/DTD/sodipodi-0.dtd"
   xmlns="http://www.w3.org/2000/svg"
   xmlns:svg="http://www.w3.org/2000/svg"><sodipodi:namedview
     id="namedview1"
     pagecolor="#ffffff"
     bordercolor="#000000"
     borderopacity="0.25"
     inkscape:showpageshadow="2"
     inkscape:pageopacity="0.0"
     inkscape:pagecheckerboard="0"
     inkscape:deskcolor="#d1d1d1"
     inkscape:document-units="mm"
     inkscape:zoom="3.7848611"
     inkscape:cx="574.92203"
     inkscape:cy="233.56207"
     inkscape:window-width="3832"
     inkscape:window-height="2152"
     inkscape:window-x="0"
     inkscape:window-y="0"
     inkscape:window-maximized="0"
     inkscape:current-layer="g67" /><defs
     id="defs1" /><g
     inkscape:label="Layer 1"
     inkscape:groupmode="layer"
     id="layer1"><rect
       style="fill:#cdd6f4;stroke-width:0.499999;stroke-linecap:round;stroke-linejoin:round"
       id="rect1"
       width="80.220001"
       height="90"
       x="0"
       y="0" /><rect
       style="fill:#181825;stroke:none;stroke-width:0.499999;stroke-linecap:round;stroke-linejoin:round"
       id="rect21"
       width="129.78"
       height="90"
       x="80.220001"
       y="0" /><text
       xml:space="preserve"
       style="font-weight:bold;font-size:10px;font-family:'JetBrains Mono';-inkscape-font-specification:'JetBrains Mono Bold';text-align:start;writing-mode:lr-tb;direction:ltr;text-anchor:start;fill:#181825;stroke:none;stroke-width:0.499999;stroke-linecap:round;stroke-linejoin:round"
       x="3.6532679"
       y="11.982659"
       id="text14"><tspan
         sodipodi:role="line"
         id="tspan14"
         style="font-size:10px;fill:#181825;stroke:none;stroke-width:0.5"
         x="3.6532679"
         y="11.982659">Pocket KB</tspan></text><g
       id="g67"
       transform="matrix(0.64305074,0,0,0.64305074,52.836144,15.232084)"
       style="stroke-width:1.55509"><path
         style="fill:none;stroke:#a6e3a1;stroke-width:1.55509;stroke-linecap:round;stroke-linejoin:round"
         d="m 83.764212,22.545881 29.069578,-10.12477 c 0,0 1.82663,-0.991602 5.42771,-0.313138 3.60108,0.678464 82.72042,16.387517 82.72042,16.387517 0,0 5.32333,1.14817 4.22735,3.026992 -1.09598,1.878824 -13.98679,20.197352 -13.98679,20.197352 0,0 -1.72226,4.69706 -12.16017,1.722255 -10.43791,-2.974803 -95.872183,-28.33892 -95.872183,-28.33892 0,0 -3.862025,-0.991601 0.574085,-2.557288 z"
         id="path1" /><path
         style="fill:none;stroke:#74c7ec;stroke-width:1.55509;stroke-linecap:round;stroke-linejoin:round"
         d="m 82.8248,32.566274 c 0,0 0,0.521895 1.461307,1.043789 1.461307,0.521896 93.628033,31.209347 93.628033,31.209347 0,0 8.14157,3.496699 11.58608,-1.774444 3.44451,-5.271145 14.4565,-23.172158 14.4565,-23.172158"
         id="path2" /><path
         style="fill:none;stroke:#cba6f7;stroke-width:1.55509;stroke-linecap:round;stroke-linejoin:round"
         d="m 88.635606,44.015263 0.29537,2.589998 30.426504,11.899214 c 0,0 3.52881,0.838698 5.57424,-0.859295"
         id="path4" /><path
         style="fill:none;stroke:#fab387;stroke-width:1.55509;stroke-linecap:round;stroke-linejoin:round"
         d="m 130.25421,59.647232 0.0631,2.092994 c 0,0 0.41752,1.043792 2.40072,1.774444 1.9832,0.730655 43.00418,16.596275 43.00418,16.596275 0,0 6.52691,2.201921 7.28205,-1.821656"
         id="path5" /><path
         style="fill:none;stroke:#74c7ec;stroke-width:1.55509;stroke-linecap:round;stroke-linejoin:round"
         d="m 202.0779,50.310716 1.87882,-10.437908"
         id="path6" /><path
         style="fill:none;stroke:#a6e3a1;stroke-width:1.55509;stroke-linecap:round;stroke-linejoin:round"
         d="m 203.95672,39.872808 1.25255,-8.350326"
         id="path7" /><path
         style="fill:none;stroke:#a6e3a1;stroke-width:1.55509;stroke-linecap:round;stroke-linejoin:round"
         d="m 81.66759,23.826913 1.157208,8.739361"
         id="path8" /><path
         style="fill:none;stroke:#74c7ec;stroke-width:1.55509;stroke-linecap:round;stroke-linejoin:round"
         d="M 84.442675,42.06477 82.824798,32.566274"
         id="path9" /><path
         style="fill:none;stroke:#a6e3a1;stroke-width:1.55509;stroke-linecap:round;stroke-linejoin:round"
         d="M 93.314897,24.737842 173.32146,47.179346 190.5962,29.017386 120.03594,14.195555 Z"
         id="path10" /><path
         style="fill:none;stroke:#a6e3a1;stroke-width:1.55509;stroke-linecap:round;stroke-linejoin:round"
         d="m 108.77642,18.637785 74.46863,18.108302"
         id="path11" /><path
         style="fill:none;stroke:#a6e3a1;stroke-width:1.55509;stroke-linecap:round;stroke-linejoin:round"
         d="M 148.65854,40.2615 169.37326,24.559313"
         id="path12" /><path
         style="fill:none;stroke:#a6e3a1;stroke-width:1.55509;stroke-linecap:round;stroke-linejoin:round"
         d="m 127.29745,34.269804 24.02833,-13.50153"
         id="path13" /><path
         style="fill:none;stroke:#a6e3a1;stroke-width:1.55509;stroke-linecap:round;stroke-linejoin:round"
         d="M 108.74493,29.065902 134.41448,17.215899"
         id="path14" /><path
         style="fill:#f38ba8;stroke:#f38ba8;stroke-width:1.55509;stroke-linecap:round;stroke-linejoin:round;stroke-opacity:1"
         d="m 175.87475,72.514967 1.18633,-15.521269"
         id="path23"
         sodipodi:nodetypes="cc" /><path
         style="fill:#f38ba8;stroke:#f38ba8;stroke-width:1.55509;stroke-linecap:round;stroke-linejoin:round;stroke-opacity:1"
         d="m 139.74084,59.860685 -0.20621,-6.410746"
         id="path24"
         sodipodi:nodetypes="cc" /><path
         style="fill:#f38ba8;stroke:#f38ba8;stroke-width:1.55509;stroke-linecap:round;stroke-linejoin:round;stroke-opacity:1"
         d="m 121.84689,53.533545 -0.23763,-5.084169"
         id="path25"
         sodipodi:nodetypes="cc" /><path
         style="fill:#f38ba8;stroke:#f38ba8;stroke-width:1.55509;stroke-linecap:round;stroke-linejoin:round;stroke-opacity:1"
         d="M 97.329222,44.438278 95.899242,31.631943"
         id="path26"
         sodipodi:nodetypes="cc" /><path
         style="fill:#f38ba8;stroke:#f38ba8;stroke-width:1.55509;stroke-linecap:round;stroke-linejoin:round;stroke-opacity:1"
         d="m 189.56707,54.868174 1.53235,-13.79119"
         id="path27"
         sodipodi:nodetypes="cc" /><path
         style="fill:#f38ba8;stroke:#f38ba8;stroke-width:1.55509;stroke-linecap:round;stroke-linejoin:round;stroke-opacity:1"
         d="m 157.48649,45.179741 0.0989,-5.585679"
         id="path28"
         sodipodi:nodetypes="cc" /><path
         style="fill:#f38ba8;stroke:#f38ba8;stroke-width:1.55509;stroke-linecap:round;stroke-linejoin:round;stroke-opacity:1"
         d="m 140.82832,40.08837 -0.27187,-5.363241"
         id="path29"
         sodipodi:nodetypes="cc" /><path
         style="fill:#f38ba8;stroke:#f38ba8;stroke-width:1.55509;stroke-linecap:round;stroke-linejoin:round;stroke-opacity:1"
         d="M 117.3367,33.100346 116.98718,21.74067"
         id="path30" /><path
         style="fill:none;stroke:#74c7ec;stroke-width:1.55509;stroke-linecap:round;stroke-linejoin:round"
         d="m 84.442677,42.06477 c 0,0 -0.10438,0.417515 1.461307,0.939411 1.565685,0.521896 92.479866,34.758236 92.479866,34.758236 0,0 6.0018,2.191959 8.40251,-1.826636 2.40072,-4.018595 15.29154,-25.625065 15.29154,-25.625065"
         id="path3" /></g><text
       xml:space="preserve"
       style="font-weight:bold;font-size:6.00001px;font-family:'JetBrains Mono';-inkscape-font-specification:'JetBrains Mono Bold';text-align:start;writing-mode:lr-tb;direction:ltr;text-anchor:start;fill:#181825;stroke:none;stroke-width:1;stroke-linecap:round;stroke-linejoin:round;stroke-opacity:1"
       x="4.0812688"
       y="77.400795"
       id="text67"><tspan
         sodipodi:role="line"
         id="tspan67"
         style="fill:#181825;stroke:none;stroke-width:1"
         x="4.0812688"
         y="77.400795">Fig. 2</tspan><tspan
         sodipodi:role="line"
         style="fill:#181825;stroke:none;stroke-width:1"
         x="4.0812688"
         y="84.90081"
         id="tspan68">Sections</tspan></text></g></svg>
