<?xml version="1.0" encoding="UTF-8" standalone="no"?>
<!-- Created with Inkscape (http://www.inkscape.org/) -->

<svg
   viewBox="0 0 21 9"
   version="1.1"
   id="svg1"
   inkscape:version="1.4.2 (ebf0e940d0, 2025-05-08)"
   sodipodi:docname="settling-on-obsidian.svg"
   xmlns:inkscape="http://www.inkscape.org/namespaces/inkscape"
   xmlns:sodipodi="http://sodipodi.sourceforge.net/DTD/sodipodi-0.dtd"
   xmlns:xlink="http://www.w3.org/1999/xlink"
   xmlns="http://www.w3.org/2000/svg"
   xmlns:svg="http://www.w3.org/2000/svg">
  <sodipodi:namedview
     id="namedview1"
     pagecolor="#ffffff"
     bordercolor="#000000"
     borderopacity="0.25"
     inkscape:showpageshadow="2"
     inkscape:pageopacity="0.0"
     inkscape:pagecheckerboard="0"
     inkscape:deskcolor="#d1d1d1"
     inkscape:document-units="px"
     inkscape:zoom="81.114591"
     inkscape:cx="17.296518"
     inkscape:cy="10.799537"
     inkscape:window-width="1037"
     inkscape:window-height="2152"
     inkscape:window-x="0"
     inkscape:window-y="0"
     inkscape:window-maximized="0"
     inkscape:current-layer="layer1" />
  <defs
     id="defs1">
    <linearGradient
       id="linearGradient2"
       inkscape:collect="always">
      <stop
         style="stop-color:#181825;stop-opacity:1;"
         offset="0"
         id="stop2" />
      <stop
         style="stop-color:#11111b;stop-opacity:1;"
         offset="1"
         id="stop3" />
    </linearGradient>
    <linearGradient
       inkscape:collect="always"
       xlink:href="#linearGradient2"
       id="linearGradient3"
       x1="0"
       y1="0"
       x2="21"
       y2="9"
       gradientUnits="userSpaceOnUse" />
  </defs>
  <g
     inkscape:label="Layer 1"
     inkscape:groupmode="layer"
     id="layer1">
    <rect
       style="fill:url(#linearGradient3);stroke:none;stroke-width:0.377953;stroke-linejoin:bevel;paint-order:stroke fill markers;fill-opacity:1"
       id="rect1"
       width="21"
       height="9"
       x="0"
       y="0" />
    <g
       id="g2"
       transform="translate(-0.17259534,0.0986259)">
      <g
         id="g1">
        <path
           fill="#a88bfa"
           d="M 2.5451198,4.6985691 C 2.623646,4.6751904 2.7501684,4.6392449 2.8956504,4.6303438 2.8083736,4.4100629 2.7873049,4.2173049 2.80425,4.0456763 2.823821,3.8474651 2.893717,3.6820313 2.9618523,3.5412639 c 0.01454,-0.030038 0.028517,-0.058005 0.041916,-0.084834 0.018991,-0.037985 0.03683,-0.073691 0.053514,-0.1097604 0.027782,-0.060045 0.048401,-0.1130718 0.058822,-0.1623371 0.010252,-0.048444 0.010317,-0.091709 -0.0018,-0.1332093 -0.012137,-0.041557 -0.03792,-0.08629 -0.086959,-0.1353224 -0.06402,-0.016589 -0.1350641,-0.00202 -0.1883236,0.045887 L 2.2069123,3.5303178 c -0.035257,0.031717 -0.0584,0.074697 -0.065474,0.1215897 l -0.0545,0.3613193 c 0.085698,0.075751 0.2972162,0.2959645 0.4258674,0.601511 0.011478,0.027265 0.022299,0.05523 0.032314,0.083831 z"
           id="path1"
           style="stroke-width:0.122595" />
        <path
           fill="#a88bfa"
           d="m 2.0613793,4.178234 c -0.00298,0.012713 -0.00717,0.025133 -0.012531,0.037072 L 1.7147747,4.9598951 c -0.034312,0.076476 -0.018507,0.1661423 0.039887,0.2262758 l 0.525735,0.5414223 C 2.5488727,5.3315336 2.5097301,4.9589267 2.3870971,4.6676627 2.2941125,4.4468301 2.1531823,4.2739816 2.0613793,4.178234 Z"
           id="path2"
           style="stroke-width:0.122595" />
        <path
           fill="#a88bfa"
           d="m 2.4018574,5.7913796 c 0.00921,0.00149 0.018553,0.00236 0.027967,0.00262 0.099772,0.00298 0.2675674,0.011668 0.4036468,0.036742 0.1110121,0.02046 0.3310721,0.081981 0.5121592,0.1349172 0.1381782,0.040385 0.2805739,-0.069966 0.3006304,-0.2125327 0.014613,-0.1039737 0.04205,-0.2215928 0.092597,-0.3294039 l -0.00118,4.049e-4 C 3.6520938,5.1854355 3.5431918,5.0312953 3.4290177,4.9328629 3.3151997,4.8347368 3.1926524,4.7889594 3.0743225,4.7723231 2.8775874,4.744653 2.6973426,4.7963643 2.5838112,4.8297224 c 0.067998,0.2832832 0.04707,0.6165978 -0.1819538,0.9616572 z"
           id="path3"
           style="stroke-width:0.122595" />
        <path
           fill="#a88bfa"
           d="M 3.8264381,5.2765736 C 3.940048,5.1051227 4.0209735,4.9717749 4.063686,4.8994921 4.085045,4.8633261 4.0811813,4.8179901 4.0558659,4.7844601 3.9899446,4.6970979 3.8638053,4.5195664 3.7950776,4.3551894 3.7244135,4.1861905 3.71387,3.9238026 3.7132694,3.7960046 3.7130367,3.7474247 3.6976383,3.6999776 3.6675903,3.6618047 L 3.2592098,3.1429983 c -0.00144,0.023386 -0.00483,0.046584 -0.00966,0.06957 -0.013595,0.064233 -0.039229,0.1281767 -0.06847,0.1913739 -0.017141,0.037041 -0.036953,0.076724 -0.056959,0.1168146 -0.013313,0.026682 -0.026728,0.05355 -0.039502,0.079932 -0.066018,0.1364066 -0.1274632,0.2844368 -0.1446265,0.4583885 -0.015927,0.1612313 0.00586,0.3487667 0.1040105,0.5726397 0.016344,0.00139 0.032796,0.00322 0.049321,0.00554 0.1408389,0.0198 0.2886649,0.074968 0.4247592,0.1922921 0.1169693,0.1008483 0.2226717,0.2453397 0.3083541,0.4470227 z"
           id="path4"
           style="stroke-width:0.122595" />
        <path
           fill="currentColor"
           d="m 6.5702885,3.4613648 c -0.7296923,0 -1.2563661,0.4590003 -1.2563661,1.0886545 0,0.6296542 0.5266738,1.0886544 1.2563661,1.0886544 0.7267506,0 1.2534243,-0.4590002 1.2534243,-1.0886544 0,-0.6296542 -0.5266737,-1.0886545 -1.2534243,-1.0886545 z m 0,0.4266336 c 0.4384044,0 0.7532314,0.2618668 0.7532314,0.6620209 0,0.4001541 -0.314827,0.6620197 -0.7532314,0.6620197 -0.4413459,0 -0.7561735,-0.2618656 -0.7561735,-0.6620197 0,-0.4001541 0.3148276,-0.6620209 0.7561735,-0.6620209 z"
           id="path5"
           style="fill:#cdd6f4;fill-opacity:1;stroke-width:0.122595" />
        <path
           fill="currentColor"
           d="m 8.4990579,5.4297701 c 0.1059235,0.1147496 0.3030583,0.2089036 0.5619817,0.2089036 0.5296154,0 0.8385704,-0.3648462 0.8385704,-0.8061927 0,-0.4442887 -0.308955,-0.8091363 -0.8385704,-0.8091363 -0.2589234,0 -0.4560579,0.097097 -0.5619817,0.2089051 V 3.493729 H 8.0282893 V 5.6063084 H 8.4990579 Z M 8.4843489,4.823654 c 0,-0.2442117 0.2089041,-0.4207502 0.4795963,-0.4207502 0.2589227,0 0.4766538,0.1530001 0.4766538,0.4295772 0,0.2765772 -0.2177311,0.4266349 -0.4766538,0.4266349 -0.2706922,0 -0.4795963,-0.1735963 -0.4795963,-0.417808 z"
           id="path6"
           style="fill:#cdd6f4;fill-opacity:1;stroke-width:0.122595" />
        <path
           fill="currentColor"
           d="m 9.949789,5.3503276 c 0.179481,0.1824233 0.523731,0.2883461 0.882692,0.2883461 0.485481,0 0.850328,-0.1765382 0.850328,-0.5384426 0,-0.353077 -0.347193,-0.4207503 -0.744405,-0.4678271 C 10.602981,4.594155 10.5,4.585327 10.5,4.5 c 0,-0.079442 0.105921,-0.1294616 0.306002,-0.1294616 0.241268,0 0.450172,0.073558 0.591403,0.2030194 L 11.641617,4.2910961 C 11.485675,4.1410384 11.194386,4.0233447 10.829538,4.0233447 c -0.491365,0 -0.794423,0.2118475 -0.794423,0.5296169 0,0.332481 0.308943,0.4060387 0.679674,0.4531157 0.347193,0.041192 0.494308,0.041192 0.494308,0.1441732 0,0.097096 -0.129461,0.1382885 -0.341307,0.1382885 -0.264808,0 -0.509021,-0.082385 -0.694385,-0.2530387 z"
           id="path7"
           style="fill:#cdd6f4;fill-opacity:1;stroke-width:0.122595" />
        <path
           fill="currentColor"
           d="m 11.852655,3.8968254 h 0.479597 V 3.493729 h -0.479597 z m 0.473712,0.158886 h -0.47077 v 1.550597 h 0.47077 z"
           id="path8"
           style="fill:#cdd6f4;fill-opacity:1;stroke-width:0.122595" />
        <path
           fill="currentColor"
           d="m 13.935183,5.4297701 v 0.1765383 h 0.470722 V 3.493729 h -0.470722 v 0.7385208 c -0.105921,-0.1118077 -0.303058,-0.2089051 -0.56198,-0.2089051 -0.529617,0 -0.838559,0.3648476 -0.838559,0.8091363 0,0.4413465 0.308942,0.8061927 0.838559,0.8061927 0.258922,0 0.456058,-0.094153 0.56198,-0.2089036 z m 0.01471,-0.6061161 v 0.017654 c 0,0.2442116 -0.208905,0.4178079 -0.479596,0.4178079 -0.258924,0 -0.476655,-0.1500577 -0.476655,-0.4266349 0,-0.2765771 0.217732,-0.4295772 0.476655,-0.4295772 0.270692,0 0.479596,0.1765385 0.479596,0.4207502 z"
           id="path9"
           style="fill:#cdd6f4;fill-opacity:1;stroke-width:0.122595" />
        <path
           fill="currentColor"
           d="M 14.691554,3.8968254 H 15.17115 V 3.493729 h -0.479596 z m 0.473711,0.158886 h -0.470767 v 1.550597 h 0.470767 z"
           id="path10"
           style="fill:#cdd6f4;fill-opacity:1;stroke-width:0.122595" />
        <path
           fill="currentColor"
           d="m 16.023806,5.6386737 c 0.273636,0 0.497252,-0.079442 0.638482,-0.2030195 0.07945,0.1471156 0.267749,0.2353849 0.612,0.1706542 V 5.2591159 c -0.164769,0.035307 -0.200077,-0.00294 -0.200077,-0.085327 V 4.6088655 c 0,-0.3883848 -0.291289,-0.5855208 -0.785596,-0.5855208 -0.426635,0 -0.767943,0.1853667 -0.865039,0.4648861 l 0.423692,0.1147501 c 0.04707,-0.1206348 0.208903,-0.2089039 0.42075,-0.2089039 0.250097,0 0.350135,0.094153 0.350135,0.2118462 v 0.00882 l -0.617884,0.055904 c -0.364847,0.035307 -0.632597,0.1853655 -0.632597,0.4884234 0,0.3060003 0.273635,0.4795965 0.656134,0.4795965 z M 16.618154,5.011962 c 0,0.1794808 -0.267751,0.2824617 -0.509019,0.2824617 -0.182424,0 -0.285405,-0.052962 -0.285405,-0.1530002 0,-0.102981 0.08239,-0.1412309 0.244211,-0.1559424 l 0.550213,-0.055903 z"
           id="path11"
           style="fill:#cdd6f4;fill-opacity:1;stroke-width:0.122595" />
        <path
           fill="currentColor"
           d="m 17.435624,5.6063084 h 0.47077 v -0.741462 c 0,-0.2677501 0.147116,-0.4236926 0.403097,-0.4236926 0.241269,0 0.367788,0.1588847 0.367788,0.4207503 v 0.7444043 h 0.47077 V 4.7236155 c 0,-0.4295771 -0.273635,-0.7002708 -0.676731,-0.7002708 -0.250096,0 -0.444289,0.094155 -0.564924,0.2206744 V 4.0557114 h -0.47077 z"
           id="path12"
           style="fill:#cdd6f4;fill-opacity:1;stroke-width:0.122595" />
      </g>
    </g>
    <path
       d="M 0.89146727,1.2851281 V 0.73331675 H 1.0146799 l 0.061984,0.23735448 0.06274,-0.23735448 H 1.263373 V 1.2851281 H 1.174932 V 1.053065 q 0,-0.047622 0.00227,-0.0982678 0.00302,-0.0514016 0.0068,-0.0990237 0.00378,-0.048378 0.00831,-0.0876851 L 1.1144595,1.0455059 H 1.0366012 L 0.96176652,0.77489158 q 0.006803,0.0521575 0.0120945,0.12472448 0.006047,0.0718111 0.006047,0.15344894 V 1.2851281 Z M 1.4289167,1.4211912 1.4878774,1.2624509 1.3314048,0.86937982 h 0.09978 l 0.080126,0.21240958 q 0.0068,0.018898 0.013606,0.041575 0.0068,0.021921 0.00983,0.040819 0.00227,-0.018898 0.00832,-0.040819 0.0068,-0.022677 0.013606,-0.041575 l 0.074079,-0.21240958 h 0.09978 L 1.5279404,1.4211912 Z M 2.4206659,1.2919313 q -0.074079,0 -0.1171654,-0.03326 -0.043087,-0.034016 -0.043087,-0.091465 h 0.092977 q 0,0.024189 0.017386,0.037039 0.018142,0.01285 0.04989,0.01285 h 0.03326 q 0.034016,0 0.052157,-0.01285 0.018898,-0.01285 0.018898,-0.037039 0,-0.022677 -0.01285,-0.03326 -0.01285,-0.011339 -0.039307,-0.015118 L 2.3692643,1.1052225 q -0.04989,-0.0068 -0.077102,-0.038551 -0.026457,-0.031748 -0.026457,-0.0823938 0,-0.0589607 0.039307,-0.0899528 0.039307,-0.031748 0.1133859,-0.031748 h 0.034772 q 0.069543,0 0.1118741,0.031748 0.042331,0.0317481 0.043843,0.0846615 h -0.093732 q -7.559e-4,-0.0196536 -0.017386,-0.0309921 -0.01663,-0.0120945 -0.044599,-0.0120945 h -0.034772 q -0.030236,0 -0.04611,0.0128504 -0.015874,0.0120945 -0.015874,0.0332599 0,0.0188977 0.011339,0.0279685 0.012094,0.00907 0.034772,0.011339 l 0.097512,0.013606 q 0.057449,0.0068 0.086173,0.040819 0.02948,0.03326 0.02948,0.089953 0,0.060472 -0.041575,0.093732 -0.040819,0.032504 -0.120189,0.032504 z M 2.7895483,1.4211912 2.848509,1.2624509 2.6920364,0.86937982 h 0.09978 l 0.080126,0.21240958 q 0.0068,0.018898 0.013606,0.041575 0.0068,0.021921 0.00983,0.040819 0.00227,-0.018898 0.00831,-0.040819 0.0068,-0.022677 0.013606,-0.041575 l 0.074079,-0.21240958 h 0.09978 L 2.888572,1.4211912 Z M 3.3277536,1.2919313 q -0.074079,0 -0.1171655,-0.03326 -0.043087,-0.034016 -0.043087,-0.091465 h 0.092976 q 0,0.024189 0.017386,0.037039 0.018142,0.01285 0.04989,0.01285 h 0.03326 q 0.034016,0 0.052157,-0.01285 0.018898,-0.01285 0.018898,-0.037039 0,-0.022677 -0.01285,-0.03326 -0.01285,-0.011339 -0.039307,-0.015118 L 3.276352,1.1052225 q -0.04989,-0.0068 -0.077102,-0.038551 -0.026457,-0.031748 -0.026457,-0.0823938 0,-0.0589607 0.039307,-0.0899528 0.039307,-0.031748 0.1133859,-0.031748 h 0.034772 q 0.069543,0 0.1118741,0.031748 0.042331,0.0317481 0.043843,0.0846615 H 3.4222418 Q 3.4214859,0.95933264 3.404856,0.94799405 3.388226,0.93589955 3.3602575,0.93589955 h -0.034772 q -0.030236,0 -0.04611,0.0128504 -0.015874,0.0120945 -0.015874,0.0332599 0,0.0188977 0.011339,0.0279685 0.012094,0.00907 0.034772,0.011339 l 0.097512,0.013606 q 0.057449,0.0068 0.086173,0.040819 0.02948,0.03326 0.02948,0.089953 0,0.060472 -0.041575,0.093732 -0.040819,0.032504 -0.1201891,0.032504 z m 0.5125045,-0.0068 q -0.058205,0 -0.092976,-0.03326 -0.034016,-0.034016 -0.034016,-0.091465 V 0.9547972 H 3.5983682 V 0.86937982 H 3.7132659 V 0.7522144 h 0.095244 V 0.86937982 H 3.9740535 V 0.9547972 H 3.8085101 v 0.2033387 q 0,0.018142 0.00983,0.030236 0.010583,0.011338 0.028724,0.011338 H 3.970274 v 0.085417 z m 0.412725,0.00756 q -0.052913,0 -0.09222,-0.020409 -0.039307,-0.020409 -0.061228,-0.057449 -0.021165,-0.037795 -0.021165,-0.088441 v -0.098268 q 0,-0.0506457 0.021165,-0.0876851 0.021921,-0.0377953 0.061228,-0.0582048 0.039307,-0.0204095 0.09222,-0.0204095 0.052157,0 0.090709,0.0204095 0.039307,0.0204095 0.060472,0.0574488 0.021921,0.0362835 0.021921,0.0854174 v 0.075591 h -0.257008 v 0.028724 q 0,0.042331 0.021921,0.064252 0.021921,0.021165 0.061984,0.021165 0.02948,0 0.04989,-0.00983 0.021165,-0.010583 0.024945,-0.030236 h 0.093732 q -0.00983,0.053669 -0.055937,0.086173 -0.04611,0.031748 -0.11263,0.031748 z M 4.1690776,1.0250965 v 0.014362 l 0.1662993,-7.559e-4 v -0.014362 q 0,-0.0430867 -0.021165,-0.0665198 -0.021165,-0.0234331 -0.061228,-0.0234331 -0.041575,0 -0.06274,0.024189 -0.021165,0.0234331 -0.021165,0.0665198 z M 4.5145269,1.2851281 V 0.86937982 h 0.078614 v 0.0604725 h 0.00227 q 0.00227,-0.0302362 0.021165,-0.0491339 0.018898,-0.0188976 0.047622,-0.0188976 0.027968,0 0.047622,0.0181418 0.019653,0.0173858 0.026457,0.0476221 0.00302,-0.0302362 0.021921,-0.0476221 0.019654,-0.0181418 0.049134,-0.0181418 0.037795,0 0.06274,0.0302362 0.024945,0.0294803 0.024945,0.0763465 V 1.2851281 h -0.08315 V 0.97520666 q 0,-0.0204095 -0.00983,-0.0317481 -0.00907,-0.0120945 -0.026457,-0.0120945 -0.034016,0 -0.034016,0.0438425 V 1.2851281 H 4.6679758 V 0.97520666 q 0,-0.0204095 -0.00907,-0.0317481 -0.00831,-0.0120945 -0.024945,-0.0120945 -0.036283,0 -0.036283,0.0438425 V 1.2851281 Z m 0.9290088,0 V 1.1997107 H 5.5856461 V 0.9547972 H 5.4586539 V 0.86937982 H 5.6801343 V 1.1997107 h 0.1277481 v 0.085417 z M 5.626465,0.79983647 q -0.028724,0 -0.045354,-0.0143622 -0.01663,-0.0151181 -0.01663,-0.040063 0,-0.0249449 0.01663,-0.0393071 0.01663,-0.0151181 0.045354,-0.0151181 0.028724,0 0.045354,0.0151181 0.01663,0.0143622 0.01663,0.0393071 0,0.0249449 -0.01663,0.040063 -0.01663,0.0143622 -0.045354,0.0143622 z M 6.049017,1.2919313 q -0.074079,0 -0.1171654,-0.03326 -0.043087,-0.034016 -0.043087,-0.091465 h 0.092976 q 0,0.024189 0.017386,0.037039 0.018142,0.01285 0.04989,0.01285 h 0.03326 q 0.034016,0 0.052158,-0.01285 0.018898,-0.01285 0.018898,-0.037039 0,-0.022677 -0.01285,-0.03326 -0.01285,-0.011339 -0.039307,-0.015118 L 5.9976154,1.1052225 q -0.04989,-0.0068 -0.077102,-0.038551 -0.026457,-0.031748 -0.026457,-0.0823938 0,-0.0589607 0.039307,-0.0899528 0.039307,-0.031748 0.1133859,-0.031748 h 0.034772 q 0.069543,0 0.1118741,0.031748 0.042331,0.0317481 0.043843,0.0846615 h -0.093732 q -7.559e-4,-0.0196536 -0.017386,-0.0309921 -0.01663,-0.0120945 -0.044599,-0.0120945 h -0.034772 q -0.030236,0 -0.04611,0.0128504 -0.015874,0.0120945 -0.015874,0.0332599 0,0.0188977 0.011339,0.0279685 0.012095,0.00907 0.034772,0.011339 l 0.097512,0.013606 q 0.057449,0.0068 0.086173,0.040819 0.02948,0.03326 0.02948,0.089953 0,0.060472 -0.041575,0.093732 -0.040819,0.032504 -0.1201891,0.032504 z m 0.9622689,7.559e-4 q -0.043843,0 -0.073323,-0.021921 -0.02948,-0.021921 -0.040819,-0.061228 v 0.075591 h -0.09222 V 0.73331675 h 0.094488 v 0.11640952 l -0.00302,0.0952441 q 0.012095,-0.0393071 0.041575,-0.0612284 0.030236,-0.0219213 0.073323,-0.0219213 0.061228,0 0.098268,0.0430867 0.037039,0.0430866 0.037039,0.11640949 v 0.11263 q 0,0.072567 -0.037795,0.1156536 -0.037039,0.043087 -0.097512,0.043087 z m -0.035528,-0.081638 q 0.036284,0 0.055937,-0.019653 0.020409,-0.019654 0.020409,-0.060472 V 1.0235846 q 0,-0.0408189 -0.020409,-0.0604724 -0.019654,-0.0196536 -0.055937,-0.0196536 -0.036283,0 -0.056693,0.0219213 -0.019654,0.0219213 -0.019654,0.0619843 v 0.09978 q 0,0.040063 0.019654,0.061984 0.020409,0.021921 0.056693,0.021921 z m 0.451276,0.081638 q -0.07937,0 -0.1247245,-0.043843 -0.045354,-0.044598 -0.045354,-0.1209449 V 0.86937982 h 0.094488 V 1.1271438 q 0,0.039307 0.019654,0.061228 0.019654,0.021921 0.055937,0.021921 0.035528,0 0.055181,-0.021921 0.020409,-0.021921 0.020409,-0.061228 V 0.86937982 h 0.094488 V 1.1278997 q 0,0.076347 -0.04611,0.1209449 -0.04611,0.043843 -0.1239686,0.043843 z m 0.2842212,-0.00756 V 1.1997107 H 7.8533658 V 0.9547972 H 7.7263736 V 0.86937982 H 7.9478541 V 1.1997107 h 0.1277481 v 0.085417 z M 7.8941847,0.79983647 q -0.028724,0 -0.045354,-0.0143622 -0.01663,-0.0151181 -0.01663,-0.040063 0,-0.0249449 0.01663,-0.0393071 0.01663,-0.0151181 0.045354,-0.0151181 0.028725,0 0.045354,0.0151181 0.01663,0.0143622 0.01663,0.0393071 0,0.0249449 -0.01663,0.040063 -0.01663,0.0143622 -0.045354,0.0143622 z m 0.507213,0.48529163 q -0.061984,0 -0.09978,-0.037039 -0.037039,-0.037039 -0.037039,-0.097512 V 0.81873412 H 8.1277598 V 0.73331675 H 8.359067 V 1.1483091 q 0,0.023433 0.01285,0.037795 0.013606,0.013606 0.036284,0.013606 h 0.1217008 v 0.085417 z m 0.4278429,0 q -0.058205,0 -0.092977,-0.03326 -0.034016,-0.034016 -0.034016,-0.091465 V 0.9547972 H 8.5873507 V 0.86937982 H 8.7022484 V 0.7522144 h 0.095244 V 0.86937982 H 8.9630359 V 0.9547972 H 8.7974925 v 0.2033387 q 0,0.018142 0.00983,0.030236 0.010583,0.011338 0.028724,0.011338 h 0.1232127 v 0.085417 z m 0.865513,0.0068 q -0.080126,0 -0.1269923,-0.044598 Q 9.5208952,1.2019785 9.5208952,1.125632 V 1.028876 q 0,-0.0771024 0.046866,-0.12170088 0.046866,-0.0445984 0.1269923,-0.0445984 0.080126,0 0.1269922,0.0445984 0.046866,0.0445985 0.046866,0.12170088 v 0.096756 q 0,0.076347 -0.046866,0.1217008 -0.046866,0.044598 -0.1269922,0.044598 z m 0,-0.082394 q 0.037795,0 0.058205,-0.020409 0.021165,-0.021165 0.021165,-0.060472 V 1.0258524 q 0,-0.0393071 -0.021165,-0.0597166 -0.020409,-0.0211654 -0.058205,-0.0211654 -0.037795,0 -0.058961,0.0211654 -0.020409,0.0204095 -0.020409,0.0597166 v 0.1028032 q 0,0.039307 0.020409,0.060472 0.021165,0.020409 0.058961,0.020409 z m 0.2849766,0.075591 V 0.86937982 h 0.092221 v 0.0778583 q 0.0076,-0.0393071 0.03704,-0.0619843 0.02948,-0.0234331 0.07484,-0.0234331 0.06123,0 0.09751,0.0408189 0.03704,0.0408189 0.03704,0.10960641 v 0.272882 h -0.09449 V 1.0235846 q 0,-0.0385512 -0.02041,-0.0589606 -0.01965,-0.0211654 -0.05367,-0.0211654 -0.03553,0 -0.05594,0.0211654 -0.01965,0.0211654 -0.01965,0.0604725 v 0.2600316 z"
       id="text1"
       style="font-weight:bold;font-size:0.755906px;font-family:'JetBrains Mono';-inkscape-font-specification:'JetBrains Mono Bold';fill:#a6adc8;stroke-width:0.377953;stroke-linejoin:bevel;paint-order:stroke fill markers"
       aria-label="My system is built on" />
    <path
       d="m 18.306231,8.077692 -0.06501,-0.4157483 h 0.07484 l 0.03704,0.2547404 q 0.003,0.023433 0.0053,0.050646 0.0023,0.027213 0.0038,0.045354 7.56e-4,-0.018142 0.003,-0.045354 0.0023,-0.027213 0.0068,-0.050646 l 0.04536,-0.2547404 h 0.07861 l 0.04384,0.2547404 q 0.0045,0.023433 0.0068,0.051402 0.003,0.027213 0.0045,0.045354 0.0015,-0.018142 0.003,-0.045354 0.0023,-0.027969 0.006,-0.051402 l 0.03779,-0.2547404 h 0.07257 l -0.06652,0.4157483 h -0.09751 l -0.03931,-0.2562521 q -0.0038,-0.021165 -0.0068,-0.048378 -0.003,-0.027969 -0.0045,-0.045354 -7.56e-4,0.017386 -0.0045,0.045354 -0.0038,0.027213 -0.0068,0.048378 l -0.04082,0.2562521 z m 0.434647,0 V 7.5258807 h 0.09449 v 0.136063 l -0.0023,0.077102 q 0.0076,-0.039307 0.03704,-0.061984 0.02948,-0.022677 0.07484,-0.022677 0.06123,0 0.09751,0.040819 0.03704,0.040819 0.03704,0.1096064 v 0.272882 h -0.09449 V 7.8161486 q 0,-0.038551 -0.02041,-0.058961 -0.01965,-0.021165 -0.05367,-0.021165 -0.03553,0 -0.05594,0.021165 -0.01965,0.021165 -0.01965,0.060473 V 8.077692 Z m 0.520063,0.1360631 0.05896,-0.1587402 -0.156473,-0.3930712 h 0.09978 l 0.08013,0.2124096 q 0.0068,0.018898 0.01361,0.041575 0.0068,0.021921 0.0098,0.040819 0.0023,-0.018898 0.0083,-0.040819 0.0068,-0.022677 0.01361,-0.041575 l 0.07408,-0.2124096 h 0.09978 l -0.202583,0.5518114 z m 0.47093,-0.3076537 -0.0015,-0.1436222 h 0.05972 q 0.03779,0 0.06047,-0.020409 0.02268,-0.02041 0.02268,-0.053669 0,-0.034016 -0.02268,-0.053669 -0.02268,-0.020409 -0.06123,-0.020409 h -0.11263 v -0.088441 h 0.108094 q 0.05594,0 0.09676,0.020409 0.04082,0.019654 0.0635,0.055937 0.02268,0.036284 0.02268,0.086173 0,0.04611 -0.01965,0.081638 -0.0189,0.034772 -0.05291,0.055181 -0.03402,0.019654 -0.07937,0.02041 v 0.060472 z m 0.03099,0.1753702 q -0.02343,0 -0.03779,-0.013606 -0.01436,-0.014362 -0.01436,-0.036283 0,-0.021921 0.01436,-0.035528 0.01436,-0.014362 0.03779,-0.014362 h 0.02268 q 0.02343,0 0.03704,0.014362 0.01436,0.013606 0.01436,0.035528 0,0.021921 -0.01436,0.036283 -0.01436,0.013606 -0.0378,0.013606 z"
       id="text1-3"
       style="font-weight:bold;font-size:0.755906px;font-family:'JetBrains Mono';-inkscape-font-specification:'JetBrains Mono Bold';text-align:end;text-anchor:end;fill:#a6adc8;stroke-width:0.377953;stroke-linejoin:bevel;paint-order:stroke fill markers"
       aria-label="why?" />
  </g>
</svg>
