<?xml version="1.0" encoding="UTF-8" standalone="no"?>
<!-- Created with Inkscape (http://www.inkscape.org/) -->

<svg
   viewBox="0 0 373.333 160"
   version="1.1"
   id="svg1"
   xml:space="preserve"
   inkscape:version="1.4.2 (ebf0e940d0, 2025-05-08)"
   sodipodi:docname="trk.svg"
   xmlns:inkscape="http://www.inkscape.org/namespaces/inkscape"
   xmlns:sodipodi="http://sodipodi.sourceforge.net/DTD/sodipodi-0.dtd"
   xmlns="http://www.w3.org/2000/svg"
   xmlns:svg="http://www.w3.org/2000/svg"><sodipodi:namedview
     id="namedview1"
     pagecolor="#ffffff"
     bordercolor="#000000"
     borderopacity="0.25"
     inkscape:showpageshadow="2"
     inkscape:pageopacity="0.0"
     inkscape:pagecheckerboard="0"
     inkscape:deskcolor="#d1d1d1"
     inkscape:document-units="px"
     inkscape:zoom="6.9531252"
     inkscape:cx="200.77303"
     inkscape:cy="43.577527"
     inkscape:window-width="3840"
     inkscape:window-height="2160"
     inkscape:window-x="0"
     inkscape:window-y="0"
     inkscape:window-maximized="0"
     inkscape:current-layer="layer1"
     showguides="true"><sodipodi:guide
       position="185.06814,49.14214"
       orientation="0,-1"
       id="guide1"
       inkscape:locked="false" /></sodipodi:namedview><defs
     id="defs1" /><g
     inkscape:label="Layer 1"
     inkscape:groupmode="layer"
     id="layer1"><rect
       style="fill:#ffffff;stroke:none;stroke-width:91.6508;stroke-linecap:round;stroke-linejoin:round;stroke-dasharray:none;stroke-opacity:0.329366"
       id="rect11"
       width="373.33298"
       height="159.99797"
       x="2.8421709e-14"
       y="-2.2802734e-08" /><path
       style="display:none;fill:none;stroke:#00ff66;stroke-width:59.9992;stroke-linecap:round;stroke-linejoin:round;stroke-dasharray:none;stroke-opacity:0.329366"
       d="m 100.9143,24.26936 c 0.71909,0 82.58422,-15.3883764 82.58422,58.01284 0,73.40121 83.16649,61.35642 83.16649,61.35642"
       id="path8" /><path
       style="display:none;fill:none;stroke:#00ff66;stroke-width:59.9992;stroke-linecap:round;stroke-linejoin:round;stroke-dasharray:none;stroke-opacity:0.329366"
       d="M 84.554931,45.37474 C 86.172887,44.47587 134.17587,34.92456 165.40061,94.93984 183.8762,130.4507 289.8557,82.2282 289.8557,82.2282"
       id="path9"
       sodipodi:nodetypes="csc" /><path
       style="fill:none;stroke:#00ff66;stroke-width:60;stroke-linecap:round;stroke-linejoin:round;stroke-dasharray:none;stroke-opacity:0.329412"
       d="M 17.977527,-72.485392 C 70.328089,-73.492133 214.10265,1.2049307 216.56435,77.005945 219.02604,152.80696 387.30786,185.81573 387.30786,185.81573"
       id="path13"
       sodipodi:nodetypes="csc" /><path
       style="fill:none;stroke:#00ff66;stroke-width:59.9992;stroke-linecap:round;stroke-linejoin:round;stroke-dasharray:none;stroke-opacity:0.329366"
       d="M -45.821276,9.0570019 C -44.20332,8.1581319 117.49769,34.472656 148.72243,92.905914 167.58826,128.211 389.09662,47.978544 389.09662,47.978544"
       id="path15"
       sodipodi:nodetypes="csc" /><path
       style="fill:none;stroke:#000000;stroke-width:9.99987"
       d="m 109.09503,72.02969 c 0,0 17.73633,4.15445 34.67373,-5.59254"
       id="path6" /><path
       style="fill:none;stroke:#000000;stroke-width:9.99987;stroke-linecap:round;stroke-linejoin:round;stroke-dasharray:none"
       d="m 121.39861,56.05101 6.55126,-10.06657 c 0,0 -16.94464,69.66703 3.50806,64.87342 20.45271,-4.7936 31.64503,-37.39009 31.64503,-37.39009 0,0 -3.83488,16.13846 1.2783,9.90678 5.11318,-6.23169 10.8655,-11.50465 10.8655,-11.50465 0,0 -16.9374,46.33817 -3.19574,38.98796 13.74166,-7.35019 36.43138,-69.98659 36.43138,-69.98659 0,0 -19.15614,74.5008 -16.61782,69.82681 14.30525,-26.34122 31.31821,-43.14242 31.31821,-43.14242 0,0 -41.38478,39.62712 -2.71638,41.70434"
       id="path5"
       sodipodi:nodetypes="ccscscscscc" /><path
       style="fill:none;stroke:#00ff66;stroke-width:60;stroke-linecap:round;stroke-linejoin:round;stroke-dasharray:none;stroke-opacity:0.329412"
       d="m -82.265168,47.905581 c 0,0 163.379776,-96.07191 198.471908,-140.368539"
       id="path17" /><path
       style="fill:none;stroke:#00ff66;stroke-width:60;stroke-linecap:round;stroke-linejoin:round;stroke-opacity:0.329412"
       d="m -32.136016,133.83227 c 0,0 71.39077,6.30517 141.154396,50.64473"
       id="path2" /><circle
       style="fill:#000000;stroke:none;stroke-width:5;stroke-linecap:round;stroke-linejoin:round;stroke-opacity:0.329412"
       id="path1"
       cx="239.13483"
       cy="108.40224"
       r="5" /></g></svg>
