<?xml version="1.0" encoding="UTF-8" standalone="no"?>
<!-- Created with Inkscape (http://www.inkscape.org/) -->

<svg
   width="210mm"
   height="90mm"
   viewBox="0 0 210 90"
   version="1.1"
   id="svg1"
   inkscape:version="1.4.2 (ebf0e940d0, 2025-05-08)"
   sodipodi:docname="winter-workflow.svg"
   xml:space="preserve"
   xmlns:inkscape="http://www.inkscape.org/namespaces/inkscape"
   xmlns:sodipodi="http://sodipodi.sourceforge.net/DTD/sodipodi-0.dtd"
   xmlns="http://www.w3.org/2000/svg"
   xmlns:svg="http://www.w3.org/2000/svg"><sodipodi:namedview
     id="namedview1"
     pagecolor="#ffffff"
     bordercolor="#000000"
     borderopacity="0.25"
     inkscape:showpageshadow="2"
     inkscape:pageopacity="0.0"
     inkscape:pagecheckerboard="0"
     inkscape:deskcolor="#d1d1d1"
     inkscape:document-units="mm"
     inkscape:zoom="1.7923962"
     inkscape:cx="54.117499"
     inkscape:cy="355.39018"
     inkscape:window-width="1272"
     inkscape:window-height="2152"
     inkscape:window-x="0"
     inkscape:window-y="0"
     inkscape:window-maximized="0"
     inkscape:current-layer="layer1"
     inkscape:clip-to-page="false" /><defs
     id="defs1"><inkscape:path-effect
       effect="perspective-envelope"
       up_left_point="90.959162,232.17158"
       up_right_point="125.05807,242.20936"
       down_left_point="91.771042,257.26602"
       down_right_point="125.57472,268.11567"
       id="path-effect65"
       is_visible="true"
       lpeversion="1"
       deform_type="perspective"
       horizontal_mirror="false"
       vertical_mirror="false"
       overflow_perspective="false" /></defs><g
     inkscape:label="Layer 1"
     inkscape:groupmode="layer"
     id="layer1"><rect
       style="fill:#11111b;stroke:none;stroke-width:1;stroke-linecap:round;stroke-linejoin:round"
       id="rect63"
       width="210"
       height="90"
       x="0"
       y="0" /><path
       d="M 12.392086,36.255981 9.6560863,9.9759814 h 3.7439997 l 1.656,18.3599996 q 0.072,0.936 0.144,2.412 0.108,1.44 0.108,2.448 0.108,-1.008 0.216,-2.448 0.144,-1.476 0.252,-2.412 l 2.304,-18.3599996 h 3.852 l 2.16,18.3599996 q 0.108,0.936 0.252,2.412 0.18,1.44 0.288,2.448 0.036,-1.008 0.108,-2.448 0.108,-1.476 0.18,-2.412 l 1.62,-18.3599996 h 3.708 l -2.88,26.2799996 h -4.968 l -2.016,-18.432 q -0.108,-1.044 -0.216,-2.52 -0.108,-1.512 -0.18,-2.484 -0.072,0.972 -0.18,2.484 -0.108,1.476 -0.216,2.52 l -2.196,18.432 z m 23.827805,0 v -4.068 h 5.292 v -18.144 h -5.292 V 9.9759814 h 15.12 v 4.0679996 h -5.292 v 18.144 h 5.292 v 4.068 z m 23.179804,0 V 9.9759814 h 5.508 l 7.308,21.2399996 q -0.108,-1.152 -0.216,-2.7 -0.108,-1.584 -0.216,-3.204 -0.072,-1.62 -0.072,-2.88 V 9.9759814 h 4.104 V 36.255981 h -5.508 l -7.236,-21.24 q 0.072,1.044 0.18,2.52 0.108,1.476 0.18,3.024 0.072,1.548 0.072,2.844 v 12.852 z m 29.767805,0 v -22.212 h -6.876 V 9.9759814 h 18.288 v 4.0679996 h -6.876 v 22.212 z m 18.4638,0 V 9.9759814 h 15.768 v 3.9599996 h -11.34 v 6.84 h 10.08 v 3.816 h -10.08 v 7.704 h 11.34 v 3.96 z m 23.43181,0 V 9.9759814 h 8.28 q 2.628,0 4.536,0.9719996 1.944,0.972 3.024,2.736 1.08,1.728 1.08,4.104 0,2.628 -1.296,4.608 -1.296,1.944 -3.492,2.772 l 5.148,11.088 h -4.932 l -4.608,-10.44 h -3.276 v 10.44 z m 4.464,-14.4 h 3.816 q 1.908,0 2.988,-1.044 1.08,-1.044 1.08,-2.88 0,-1.836 -1.116,-2.916 -1.08,-1.08 -2.952,-1.08 h -3.816 z"
       id="text64"
       style="font-weight:bold;font-size:36px;font-family:'JetBrains Mono';-inkscape-font-specification:'JetBrains Mono Bold';letter-spacing:2.22779px;fill:#74c7ec;stroke-linecap:round;stroke-linejoin:bevel;paint-order:fill markers stroke"
       aria-label="WINTER" /><path
       style="fill:#11111b;stroke:#11111b;stroke-width:2;stroke-linecap:round;stroke-linejoin:round"
       d="M 165.41717,96.007183 97.293162,52.136657 196.41617,-1.2259173 216.21513,-12.739834 214.8866,94.678656 Z"
       id="path64"
       sodipodi:nodetypes="cccccc" /><path
       style="fill:#181825;stroke:#74c7ec;stroke-width:2;stroke-linecap:round;stroke-linejoin:round"
       d="M 211.2078,94.777452 94.768388,57.126739 198.31983,0 l 19.79896,-11.513917 -1.32853,107.41849 z"
       id="path43"
       sodipodi:nodetypes="cccccc" /><path
       style="fill:#6c7086;stroke:#11111b;stroke-width:2;stroke-linecap:round;stroke-linejoin:round"
       d="M 174.92296,73.585736 191.8248,61.776591 173.74205,59.488567 171.82306,69.969183 Z"
       id="path49" /><path
       style="fill:#313244;stroke:#11111b;stroke-width:2;stroke-linecap:round;stroke-linejoin:round"
       d="m 198.22092,41.577029 c 0,0 -15.5548,-21.161945 -32.93368,-12.706753 -20.56552,10.005559 32.93368,12.706753 32.93368,12.706753 z"
       id="path52"
       sodipodi:nodetypes="csc" /><path
       style="fill:#313244;stroke:#11111b;stroke-width:2;stroke-linecap:round;stroke-linejoin:round"
       d="m 183.09971,33.730596 c 0,0 13.70708,-5.093419 14.92489,5.830038 1.57781,14.152513 1.54995,20.370776 1.54995,20.370776 l -11.07107,7.52833 -1.32853,-22.732603 z"
       id="path47"
       sodipodi:nodetypes="cscccc" /><path
       style="fill:#585b70;stroke:#11111b;stroke-width:2;stroke-linecap:round;stroke-linejoin:round"
       d="m 145.76913,33.360833 13.27416,-6.956416 c 0,0 7.02281,1.273267 14.55114,3.450577 7.84735,2.269576 16.34829,7.712849 16.34829,7.712849 l -10.07468,5.830766 z"
       id="path45"
       sodipodi:nodetypes="ccsccc" /><path
       style="fill:#313244;stroke:#11111b;stroke-width:2;stroke-linecap:round;stroke-linejoin:round"
       d="m 188.50348,67.45974 -8.21249,-2.853058 7.54822,-8.513243 z"
       id="path50" /><path
       style="fill:#45475a;stroke:#11111b;stroke-width:2;stroke-linecap:round;stroke-linejoin:round"
       d="m 180.38469,69.30492 8.93066,-6.421223 c 0,0 1.18092,-6.864066 0.88569,-12.251989 -0.29523,-5.387922 -0.25832,-13.063865 -0.25832,-13.063865 l -10.07468,5.830766 z"
       id="path46"
       sodipodi:nodetypes="ccsccc" /><path
       style="fill:#7f849c;stroke:#11111b;stroke-width:2;stroke-linecap:round;stroke-linejoin:round"
       d="m 152.81468,60.456029 0.40898,6.487062 21.6993,6.642645 -0.24904,-6.113748 z"
       id="path48" /><g
       id="text61"
       style="font-weight:bold;font-size:10px;font-family:'JetBrains Mono';-inkscape-font-specification:'JetBrains Mono Bold';letter-spacing:2.22779px;fill:#74c7ec;stroke-linecap:round;stroke-linejoin:round"
       aria-label="WORKFLOW&#10;&#10;IMPROVEMENTS"><path
         d="m 11.412585,55.502979 -0.76,-7.3 h 1.04 l 0.46,5.1 q 0.02,0.26 0.04,0.67 0.03,0.4 0.03,0.68 0.03,-0.28 0.06,-0.68 0.04,-0.41 0.07,-0.67 l 0.64,-5.1 h 1.07 l 0.6,5.1 q 0.03,0.26 0.07,0.67 0.05,0.4 0.08,0.68 0.01,-0.28 0.03,-0.68 0.03,-0.41 0.05,-0.67 l 0.45,-5.1 h 1.03 l -0.8,7.3 h -1.38 l -0.56,-5.12 q -0.03,-0.29 -0.06,-0.7 -0.03,-0.42 -0.05,-0.69 -0.02,0.27 -0.05,0.69 -0.03,0.41 -0.06,0.7 l -0.61,5.12 z m 10.327793,0.1 q -1.05,0 -1.67,-0.6 -0.61,-0.6 -0.61,-1.66 v -2.98 q 0,-1.06 0.61,-1.66 0.62,-0.6 1.67,-0.6 1.05,0 1.66,0.6 0.62,0.6 0.62,1.65 v 2.99 q 0,1.06 -0.62,1.66 -0.61,0.6 -1.66,0.6 z m 0,-1.1 q 0.51,0 0.77,-0.27 0.26,-0.28 0.26,-0.79 v -3.18 q 0,-0.51 -0.26,-0.78 -0.26,-0.28 -0.77,-0.28 -0.51,0 -0.77,0.28 -0.26,0.27 -0.26,0.78 v 3.18 q 0,0.51 0.26,0.79 0.26,0.27 0.77,0.27 z m 5.997794,1 v -7.3 h 2.3 q 0.73,0 1.26,0.27 0.54,0.27 0.84,0.76 0.3,0.48 0.3,1.14 0,0.73 -0.36,1.28 -0.36,0.54 -0.97,0.77 l 1.43,3.08 h -1.37 l -1.28,-2.9 h -0.91 v 2.9 z m 1.24,-4 h 1.06 q 0.53,0 0.83,-0.29 0.3,-0.29 0.3,-0.8 0,-0.51 -0.31,-0.81 -0.3,-0.3 -0.82,-0.3 h -1.06 z m 6.977795,4 v -7.3 h 1.25 v 2.98 h 0.86 l 1.39,-2.98 h 1.35 l -1.64,3.48 1.72,3.82 h -1.39 l -1.44,-3.23 h -0.85 v 3.23 z m 8.267792,0 v -7.3 h 4.54 v 1.16 h -3.31 v 1.95 h 3.05 v 1.16 h -3.03 v 3.03 z m 8.637795,0 v -7.3 h 1.25 v 6.17 h 3.1 v 1.13 z m 10.017795,0.1 q -1.05,0 -1.67,-0.6 -0.61,-0.6 -0.61,-1.66 v -2.98 q 0,-1.06 0.61,-1.66 0.62,-0.6 1.67,-0.6 1.05,0 1.66,0.6 0.62,0.6 0.62,1.65 v 2.99 q 0,1.06 -0.62,1.66 -0.61,0.6 -1.66,0.6 z m 0,-1.1 q 0.51,0 0.77,-0.27 0.26,-0.28 0.26,-0.79 v -3.18 q 0,-0.51 -0.26,-0.78 -0.26,-0.28 -0.77,-0.28 -0.51,0 -0.77,0.28 -0.26,0.27 -0.26,0.78 v 3.18 q 0,0.51 0.26,0.79 0.26,0.27 0.77,0.27 z m 6.127794,1 -0.76,-7.3 h 1.04 l 0.46,5.1 q 0.02,0.26 0.04,0.67 0.03,0.4 0.03,0.68 0.03,-0.28 0.06,-0.68 0.04,-0.41 0.07,-0.67 l 0.64,-5.1 h 1.07 l 0.6,5.1 q 0.03,0.26 0.07,0.67 0.05,0.4 0.08,0.68 0.01,-0.28 0.03,-0.68 0.03,-0.41 0.05,-0.67 l 0.45,-5.1 h 1.03 l -0.8,7.3 h -1.38 l -0.56,-5.12 q -0.03,-0.29 -0.06,-0.7 -0.03,-0.42 -0.05,-0.69 -0.02,0.27 -0.05,0.69 -0.03,0.41 -0.06,0.7 l -0.61,5.12 z"
         id="path1" /><path
         d="m 11.412585,80.502979 v -1.13 h 1.47 v -5.04 h -1.47 v -1.13 h 4.2 v 1.13 h -1.47 v 5.04 h 1.47 v 1.13 z m 7.867793,0 v -7.3 h 1.63 l 0.82,3.14 0.83,-3.14 h 1.64 v 7.3 h -1.17 v -3.07 q 0,-0.63 0.03,-1.3 0.04,-0.68 0.09,-1.31 0.05,-0.64 0.11,-1.16 l -1.03,3.67 h -1.03 l -0.99,-3.58 q 0.09,0.69 0.16,1.65 0.08,0.95 0.08,2.03 v 3.07 z m 8.457794,0 v -7.3 h 2.43 q 0.73,0 1.27,0.28 0.55,0.28 0.85,0.79 0.3,0.5 0.3,1.18 0,0.68 -0.3,1.19 -0.3,0.5 -0.85,0.78 -0.54,0.28 -1.27,0.28 h -1.18 v 2.8 z m 1.25,-3.9 h 1.18 q 0.53,0 0.84,-0.32 0.31,-0.32 0.31,-0.83 0,-0.51 -0.31,-0.83 -0.31,-0.32 -0.84,-0.32 h -1.18 z m 6.977795,3.9 v -7.3 h 2.3 q 0.73,0 1.26,0.27 0.54,0.27 0.84,0.76 0.3,0.48 0.3,1.14 0,0.73 -0.36,1.28 -0.36,0.54 -0.97,0.77 l 1.43,3.08 h -1.37 l -1.28,-2.9 h -0.91 v 2.9 z m 1.24,-4 h 1.06 q 0.53,0 0.83,-0.29 0.3,-0.29 0.3,-0.8 0,-0.51 -0.31,-0.81 -0.3,-0.3 -0.82,-0.3 h -1.06 z m 9.217792,4.1 q -1.05,0 -1.67,-0.6 -0.61,-0.6 -0.61,-1.66 v -2.98 q 0,-1.06 0.61,-1.66 0.62,-0.6 1.67,-0.6 1.05,0 1.66,0.6 0.62,0.6 0.62,1.65 v 2.99 q 0,1.06 -0.62,1.66 -0.61,0.6 -1.66,0.6 z m 0,-1.1 q 0.51,0 0.77,-0.27 0.26,-0.28 0.26,-0.79 v -3.18 q 0,-0.51 -0.26,-0.78 -0.26,-0.28 -0.77,-0.28 -0.51,0 -0.77,0.28 -0.26,0.27 -0.26,0.78 v 3.18 q 0,0.51 0.26,0.79 0.26,0.27 0.77,0.27 z m 7.417795,1 -1.84,-7.3 h 1.29 l 1.11,4.76 q 0.09,0.35 0.16,0.76 0.08,0.4 0.12,0.64 0.04,-0.24 0.11,-0.64 0.08,-0.41 0.17,-0.77 l 1.07,-4.75 h 1.27 l -1.84,7.3 z m 6.917795,0 v -7.3 h 4.38 v 1.1 h -3.15 v 1.9 h 2.8 v 1.06 h -2.8 v 2.14 h 3.15 v 1.1 z m 7.887794,0 v -7.3 h 1.63 l 0.82,3.14 0.83,-3.14 h 1.64 v 7.3 h -1.17 v -3.07 q 0,-0.63 0.03,-1.3 0.04,-0.68 0.09,-1.31 0.05,-0.64 0.11,-1.16 l -1.03,3.67 h -1.03 l -0.99,-3.58 q 0.09,0.69 0.16,1.65 0.08,0.95 0.08,2.03 v 3.07 z m 8.567791,0 v -7.3 h 4.38 v 1.1 h -3.15 v 1.9 h 2.8 v 1.06 h -2.8 v 2.14 h 3.15 v 1.1 z m 8.067799,0 v -7.3 h 1.53 l 2.03,5.9 q -0.03,-0.32 -0.06,-0.75 -0.03,-0.44 -0.06,-0.89 -0.02,-0.45 -0.02,-0.8 v -3.46 h 1.14 v 7.3 h -1.53 l -2.01,-5.9 q 0.02,0.29 0.05,0.7 0.03,0.41 0.05,0.84 0.02,0.43 0.02,0.79 v 3.57 z m 9.877791,0 v -6.17 h -1.91 v -1.13 h 5.08 v 1.13 h -1.91 v 6.17 z m 8.887786,0.1 q -0.74,0 -1.3,-0.26 -0.55,-0.26 -0.86,-0.74 -0.3,-0.49 -0.3,-1.16 h 1.23 q 0,0.49 0.33,0.78 0.34,0.29 0.9,0.29 0.54,0 0.85,-0.28 0.32,-0.29 0.32,-0.77 0,-0.36 -0.21,-0.63 -0.2,-0.28 -0.58,-0.38 l -0.98,-0.25 q -0.79,-0.2 -1.25,-0.75 -0.46,-0.55 -0.46,-1.31 0,-0.93 0.61,-1.48 0.61,-0.56 1.63,-0.56 0.69,0 1.2,0.25 0.52,0.25 0.8,0.71 0.28,0.45 0.28,1.06 h -1.22 q 0,-0.42 -0.29,-0.68 -0.29,-0.26 -0.77,-0.26 -0.47,0 -0.75,0.26 -0.27,0.25 -0.27,0.66 0,0.34 0.19,0.56 0.2,0.22 0.55,0.32 l 1.01,0.25 q 0.81,0.2 1.27,0.8 0.47,0.6 0.47,1.43 0,0.65 -0.3,1.13 -0.29,0.48 -0.83,0.75 -0.54,0.26 -1.27,0.26 z"
         id="path2" /></g><g
       id="g65"
       inkscape:path-effect="#path-effect65"
       transform="translate(54.809968,-198.81075)" /><path
       style="fill:#74c7ec;stroke:#11111b;stroke-width:2;stroke-linecap:round;stroke-linejoin:round"
       d="M 146.58101,58.455268 180.38469,69.30492 179.86804,43.398609 145.76913,33.360834 Z"
       id="path44"
       sodipodi:nodetypes="ccccc" /></g></svg>
